<svg width="20" height="19" viewBox="0 0 20 19" fill="none" xmlns="http://www.w3.org/2000/svg">
<path d="M5.42969 0.945312L9.17969 4.69531C9.41406 4.92969 9.41406 5.35938 9.17969 5.59375C8.94531 5.82812 8.51562 5.82812 8.28125 5.59375L5.625 2.89844V17.625C5.625 17.9766 5.3125 18.25 5 18.25C4.64844 18.25 4.375 17.9766 4.375 17.625V2.89844L1.67969 5.59375C1.44531 5.82812 1.01562 5.82812 0.78125 5.59375C0.546875 5.35938 0.546875 4.92969 0.78125 4.69531L4.53125 0.945312C4.76562 0.710938 5.19531 0.710938 5.42969 0.945312ZM19.1797 14.3438L15.4297 18.0938C15.1953 18.3281 14.7656 18.3281 14.5312 18.0938L10.7812 14.3438C10.5469 14.1094 10.5469 13.6797 10.7812 13.4453C11.0156 13.2109 11.4453 13.2109 11.6797 13.4453L14.375 16.1406V1.375C14.375 1.0625 14.6484 0.75 15 0.75C15.3125 0.75 15.625 1.0625 15.625 1.375V16.1406L18.2812 13.4453C18.5156 13.2109 18.9453 13.2109 19.1797 13.4453C19.4141 13.6797 19.4141 14.1094 19.1797 14.3438Z" fill="#475467"/>
</svg>
