<svg width="1440" height="1440" viewBox="0 0 1440 1440" fill="none" xmlns="http://www.w3.org/2000/svg">
<mask id="mask0_136_92763" style="mask-type:alpha" maskUnits="userSpaceOnUse" x="0" y="0" width="1440" height="1440">
<rect width="1440" height="1440" fill="url(#paint0_radial_136_92763)"/>
</mask>
<g mask="url(#mask0_136_92763)">
<g clip-path="url(#clip0_136_92763)">
<mask id="path-3-inside-1_136_92763" fill="white">
<path d="M-48 0H48V96H-48V0Z"/>
</mask>
<path d="M48 96V97H49V96H48ZM48 0H47V96H48H49V0H48ZM48 96V95H-48V96V97H48V96Z" fill="#D0D5DD" mask="url(#path-3-inside-1_136_92763)"/>
<mask id="path-5-inside-2_136_92763" fill="white">
<path d="M48 0H144V96H48V0Z"/>
</mask>
<path d="M144 96V97H145V96H144ZM144 0H143V96H144H145V0H144ZM144 96V95H48V96V97H144V96Z" fill="#D0D5DD" mask="url(#path-5-inside-2_136_92763)"/>
<mask id="path-7-inside-3_136_92763" fill="white">
<path d="M144 0H240V96H144V0Z"/>
</mask>
<path d="M240 96V97H241V96H240ZM240 0H239V96H240H241V0H240ZM240 96V95H144V96V97H240V96Z" fill="#D0D5DD" mask="url(#path-7-inside-3_136_92763)"/>
<mask id="path-9-inside-4_136_92763" fill="white">
<path d="M240 0H336V96H240V0Z"/>
</mask>
<path d="M336 96V97H337V96H336ZM336 0H335V96H336H337V0H336ZM336 96V95H240V96V97H336V96Z" fill="#D0D5DD" mask="url(#path-9-inside-4_136_92763)"/>
<mask id="path-11-inside-5_136_92763" fill="white">
<path d="M336 0H432V96H336V0Z"/>
</mask>
<path d="M432 96V97H433V96H432ZM432 0H431V96H432H433V0H432ZM432 96V95H336V96V97H432V96Z" fill="#D0D5DD" mask="url(#path-11-inside-5_136_92763)"/>
<mask id="path-13-inside-6_136_92763" fill="white">
<path d="M432 0H528V96H432V0Z"/>
</mask>
<path d="M528 96V97H529V96H528ZM528 0H527V96H528H529V0H528ZM528 96V95H432V96V97H528V96Z" fill="#D0D5DD" mask="url(#path-13-inside-6_136_92763)"/>
<mask id="path-15-inside-7_136_92763" fill="white">
<path d="M528 0H624V96H528V0Z"/>
</mask>
<path d="M624 96V97H625V96H624ZM624 0H623V96H624H625V0H624ZM624 96V95H528V96V97H624V96Z" fill="#D0D5DD" mask="url(#path-15-inside-7_136_92763)"/>
<mask id="path-17-inside-8_136_92763" fill="white">
<path d="M624 0H720V96H624V0Z"/>
</mask>
<path d="M720 96V97H721V96H720ZM720 0H719V96H720H721V0H720ZM720 96V95H624V96V97H720V96Z" fill="#D0D5DD" mask="url(#path-17-inside-8_136_92763)"/>
<mask id="path-19-inside-9_136_92763" fill="white">
<path d="M720 0H816V96H720V0Z"/>
</mask>
<path d="M816 96V97H817V96H816ZM816 0H815V96H816H817V0H816ZM816 96V95H720V96V97H816V96Z" fill="#D0D5DD" mask="url(#path-19-inside-9_136_92763)"/>
<mask id="path-21-inside-10_136_92763" fill="white">
<path d="M816 0H912V96H816V0Z"/>
</mask>
<path d="M912 96V97H913V96H912ZM912 0H911V96H912H913V0H912ZM912 96V95H816V96V97H912V96Z" fill="#D0D5DD" mask="url(#path-21-inside-10_136_92763)"/>
<mask id="path-23-inside-11_136_92763" fill="white">
<path d="M912 0H1008V96H912V0Z"/>
</mask>
<path d="M1008 96V97H1009V96H1008ZM1008 0H1007V96H1008H1009V0H1008ZM1008 96V95H912V96V97H1008V96Z" fill="#D0D5DD" mask="url(#path-23-inside-11_136_92763)"/>
<mask id="path-25-inside-12_136_92763" fill="white">
<path d="M1008 0H1104V96H1008V0Z"/>
</mask>
<path d="M1104 96V97H1105V96H1104ZM1104 0H1103V96H1104H1105V0H1104ZM1104 96V95H1008V96V97H1104V96Z" fill="#D0D5DD" mask="url(#path-25-inside-12_136_92763)"/>
<mask id="path-27-inside-13_136_92763" fill="white">
<path d="M1104 0H1200V96H1104V0Z"/>
</mask>
<path d="M1200 96V97H1201V96H1200ZM1200 0H1199V96H1200H1201V0H1200ZM1200 96V95H1104V96V97H1200V96Z" fill="#D0D5DD" mask="url(#path-27-inside-13_136_92763)"/>
<mask id="path-29-inside-14_136_92763" fill="white">
<path d="M1200 0H1296V96H1200V0Z"/>
</mask>
<path d="M1296 96V97H1297V96H1296ZM1296 0H1295V96H1296H1297V0H1296ZM1296 96V95H1200V96V97H1296V96Z" fill="#D0D5DD" mask="url(#path-29-inside-14_136_92763)"/>
<mask id="path-31-inside-15_136_92763" fill="white">
<path d="M1296 0H1392V96H1296V0Z"/>
</mask>
<path d="M1392 96V97H1393V96H1392ZM1392 0H1391V96H1392H1393V0H1392ZM1392 96V95H1296V96V97H1392V96Z" fill="#D0D5DD" mask="url(#path-31-inside-15_136_92763)"/>
<mask id="path-33-inside-16_136_92763" fill="white">
<path d="M1392 0H1488V96H1392V0Z"/>
</mask>
<path d="M1488 96V97H1489V96H1488ZM1488 0H1487V96H1488H1489V0H1488ZM1488 96V95H1392V96V97H1488V96Z" fill="#D0D5DD" mask="url(#path-33-inside-16_136_92763)"/>
<mask id="path-35-inside-17_136_92763" fill="white">
<path d="M-48 96H48V192H-48V96Z"/>
</mask>
<path d="M48 192V193H49V192H48ZM48 96H47V192H48H49V96H48ZM48 192V191H-48V192V193H48V192Z" fill="#D0D5DD" mask="url(#path-35-inside-17_136_92763)"/>
<mask id="path-37-inside-18_136_92763" fill="white">
<path d="M48 96H144V192H48V96Z"/>
</mask>
<path d="M144 192V193H145V192H144ZM144 96H143V192H144H145V96H144ZM144 192V191H48V192V193H144V192Z" fill="#D0D5DD" mask="url(#path-37-inside-18_136_92763)"/>
<mask id="path-39-inside-19_136_92763" fill="white">
<path d="M144 96H240V192H144V96Z"/>
</mask>
<path d="M240 192V193H241V192H240ZM240 96H239V192H240H241V96H240ZM240 192V191H144V192V193H240V192Z" fill="#D0D5DD" mask="url(#path-39-inside-19_136_92763)"/>
<mask id="path-41-inside-20_136_92763" fill="white">
<path d="M240 96H336V192H240V96Z"/>
</mask>
<path d="M240 96H336V192H240V96Z" fill="#F2F4F7"/>
<path d="M336 192V193H337V192H336ZM336 96H335V192H336H337V96H336ZM336 192V191H240V192V193H336V192Z" fill="#D0D5DD" mask="url(#path-41-inside-20_136_92763)"/>
<mask id="path-43-inside-21_136_92763" fill="white">
<path d="M336 96H432V192H336V96Z"/>
</mask>
<path d="M432 192V193H433V192H432ZM432 96H431V192H432H433V96H432ZM432 192V191H336V192V193H432V192Z" fill="#D0D5DD" mask="url(#path-43-inside-21_136_92763)"/>
<mask id="path-45-inside-22_136_92763" fill="white">
<path d="M432 96H528V192H432V96Z"/>
</mask>
<path d="M528 192V193H529V192H528ZM528 96H527V192H528H529V96H528ZM528 192V191H432V192V193H528V192Z" fill="#D0D5DD" mask="url(#path-45-inside-22_136_92763)"/>
<mask id="path-47-inside-23_136_92763" fill="white">
<path d="M528 96H624V192H528V96Z"/>
</mask>
<path d="M624 192V193H625V192H624ZM624 96H623V192H624H625V96H624ZM624 192V191H528V192V193H624V192Z" fill="#D0D5DD" mask="url(#path-47-inside-23_136_92763)"/>
<mask id="path-49-inside-24_136_92763" fill="white">
<path d="M624 96H720V192H624V96Z"/>
</mask>
<path d="M720 192V193H721V192H720ZM720 96H719V192H720H721V96H720ZM720 192V191H624V192V193H720V192Z" fill="#D0D5DD" mask="url(#path-49-inside-24_136_92763)"/>
<mask id="path-51-inside-25_136_92763" fill="white">
<path d="M720 96H816V192H720V96Z"/>
</mask>
<path d="M816 192V193H817V192H816ZM816 96H815V192H816H817V96H816ZM816 192V191H720V192V193H816V192Z" fill="#D0D5DD" mask="url(#path-51-inside-25_136_92763)"/>
<mask id="path-53-inside-26_136_92763" fill="white">
<path d="M816 96H912V192H816V96Z"/>
</mask>
<path d="M912 192V193H913V192H912ZM912 96H911V192H912H913V96H912ZM912 192V191H816V192V193H912V192Z" fill="#D0D5DD" mask="url(#path-53-inside-26_136_92763)"/>
<mask id="path-55-inside-27_136_92763" fill="white">
<path d="M912 96H1008V192H912V96Z"/>
</mask>
<path d="M1008 192V193H1009V192H1008ZM1008 96H1007V192H1008H1009V96H1008ZM1008 192V191H912V192V193H1008V192Z" fill="#D0D5DD" mask="url(#path-55-inside-27_136_92763)"/>
<mask id="path-57-inside-28_136_92763" fill="white">
<path d="M1008 96H1104V192H1008V96Z"/>
</mask>
<path d="M1104 192V193H1105V192H1104ZM1104 96H1103V192H1104H1105V96H1104ZM1104 192V191H1008V192V193H1104V192Z" fill="#D0D5DD" mask="url(#path-57-inside-28_136_92763)"/>
<mask id="path-59-inside-29_136_92763" fill="white">
<path d="M1104 96H1200V192H1104V96Z"/>
</mask>
<path d="M1104 96H1200V192H1104V96Z" fill="#F2F4F7"/>
<path d="M1200 192V193H1201V192H1200ZM1200 96H1199V192H1200H1201V96H1200ZM1200 192V191H1104V192V193H1200V192Z" fill="#D0D5DD" mask="url(#path-59-inside-29_136_92763)"/>
<mask id="path-61-inside-30_136_92763" fill="white">
<path d="M1200 96H1296V192H1200V96Z"/>
</mask>
<path d="M1296 192V193H1297V192H1296ZM1296 96H1295V192H1296H1297V96H1296ZM1296 192V191H1200V192V193H1296V192Z" fill="#D0D5DD" mask="url(#path-61-inside-30_136_92763)"/>
<mask id="path-63-inside-31_136_92763" fill="white">
<path d="M1296 96H1392V192H1296V96Z"/>
</mask>
<path d="M1392 192V193H1393V192H1392ZM1392 96H1391V192H1392H1393V96H1392ZM1392 192V191H1296V192V193H1392V192Z" fill="#D0D5DD" mask="url(#path-63-inside-31_136_92763)"/>
<mask id="path-65-inside-32_136_92763" fill="white">
<path d="M1392 96H1488V192H1392V96Z"/>
</mask>
<path d="M1488 192V193H1489V192H1488ZM1488 96H1487V192H1488H1489V96H1488ZM1488 192V191H1392V192V193H1488V192Z" fill="#D0D5DD" mask="url(#path-65-inside-32_136_92763)"/>
<mask id="path-67-inside-33_136_92763" fill="white">
<path d="M-48 192H48V288H-48V192Z"/>
</mask>
<path d="M48 288V289H49V288H48ZM48 192H47V288H48H49V192H48ZM48 288V287H-48V288V289H48V288Z" fill="#D0D5DD" mask="url(#path-67-inside-33_136_92763)"/>
<mask id="path-69-inside-34_136_92763" fill="white">
<path d="M48 192H144V288H48V192Z"/>
</mask>
<path d="M144 288V289H145V288H144ZM144 192H143V288H144H145V192H144ZM144 288V287H48V288V289H144V288Z" fill="#D0D5DD" mask="url(#path-69-inside-34_136_92763)"/>
<mask id="path-71-inside-35_136_92763" fill="white">
<path d="M144 192H240V288H144V192Z"/>
</mask>
<path d="M240 288V289H241V288H240ZM240 192H239V288H240H241V192H240ZM240 288V287H144V288V289H240V288Z" fill="#D0D5DD" mask="url(#path-71-inside-35_136_92763)"/>
<mask id="path-73-inside-36_136_92763" fill="white">
<path d="M240 192H336V288H240V192Z"/>
</mask>
<path d="M336 288V289H337V288H336ZM336 192H335V288H336H337V192H336ZM336 288V287H240V288V289H336V288Z" fill="#D0D5DD" mask="url(#path-73-inside-36_136_92763)"/>
<mask id="path-75-inside-37_136_92763" fill="white">
<path d="M336 192H432V288H336V192Z"/>
</mask>
<path d="M432 288V289H433V288H432ZM432 192H431V288H432H433V192H432ZM432 288V287H336V288V289H432V288Z" fill="#D0D5DD" mask="url(#path-75-inside-37_136_92763)"/>
<mask id="path-77-inside-38_136_92763" fill="white">
<path d="M432 192H528V288H432V192Z"/>
</mask>
<path d="M432 192H528V288H432V192Z" fill="#F2F4F7"/>
<path d="M528 288V289H529V288H528ZM528 192H527V288H528H529V192H528ZM528 288V287H432V288V289H528V288Z" fill="#D0D5DD" mask="url(#path-77-inside-38_136_92763)"/>
<mask id="path-79-inside-39_136_92763" fill="white">
<path d="M528 192H624V288H528V192Z"/>
</mask>
<path d="M624 288V289H625V288H624ZM624 192H623V288H624H625V192H624ZM624 288V287H528V288V289H624V288Z" fill="#D0D5DD" mask="url(#path-79-inside-39_136_92763)"/>
<mask id="path-81-inside-40_136_92763" fill="white">
<path d="M624 192H720V288H624V192Z"/>
</mask>
<path d="M720 288V289H721V288H720ZM720 192H719V288H720H721V192H720ZM720 288V287H624V288V289H720V288Z" fill="#D0D5DD" mask="url(#path-81-inside-40_136_92763)"/>
<mask id="path-83-inside-41_136_92763" fill="white">
<path d="M720 192H816V288H720V192Z"/>
</mask>
<path d="M816 288V289H817V288H816ZM816 192H815V288H816H817V192H816ZM816 288V287H720V288V289H816V288Z" fill="#D0D5DD" mask="url(#path-83-inside-41_136_92763)"/>
<mask id="path-85-inside-42_136_92763" fill="white">
<path d="M816 192H912V288H816V192Z"/>
</mask>
<path d="M816 192H912V288H816V192Z" fill="#F2F4F7"/>
<path d="M912 288V289H913V288H912ZM912 192H911V288H912H913V192H912ZM912 288V287H816V288V289H912V288Z" fill="#D0D5DD" mask="url(#path-85-inside-42_136_92763)"/>
<mask id="path-87-inside-43_136_92763" fill="white">
<path d="M912 192H1008V288H912V192Z"/>
</mask>
<path d="M1008 288V289H1009V288H1008ZM1008 192H1007V288H1008H1009V192H1008ZM1008 288V287H912V288V289H1008V288Z" fill="#D0D5DD" mask="url(#path-87-inside-43_136_92763)"/>
<mask id="path-89-inside-44_136_92763" fill="white">
<path d="M1008 192H1104V288H1008V192Z"/>
</mask>
<path d="M1104 288V289H1105V288H1104ZM1104 192H1103V288H1104H1105V192H1104ZM1104 288V287H1008V288V289H1104V288Z" fill="#D0D5DD" mask="url(#path-89-inside-44_136_92763)"/>
<mask id="path-91-inside-45_136_92763" fill="white">
<path d="M1104 192H1200V288H1104V192Z"/>
</mask>
<path d="M1200 288V289H1201V288H1200ZM1200 192H1199V288H1200H1201V192H1200ZM1200 288V287H1104V288V289H1200V288Z" fill="#D0D5DD" mask="url(#path-91-inside-45_136_92763)"/>
<mask id="path-93-inside-46_136_92763" fill="white">
<path d="M1200 192H1296V288H1200V192Z"/>
</mask>
<path d="M1296 288V289H1297V288H1296ZM1296 192H1295V288H1296H1297V192H1296ZM1296 288V287H1200V288V289H1296V288Z" fill="#D0D5DD" mask="url(#path-93-inside-46_136_92763)"/>
<mask id="path-95-inside-47_136_92763" fill="white">
<path d="M1296 192H1392V288H1296V192Z"/>
</mask>
<path d="M1392 288V289H1393V288H1392ZM1392 192H1391V288H1392H1393V192H1392ZM1392 288V287H1296V288V289H1392V288Z" fill="#D0D5DD" mask="url(#path-95-inside-47_136_92763)"/>
<mask id="path-97-inside-48_136_92763" fill="white">
<path d="M1392 192H1488V288H1392V192Z"/>
</mask>
<path d="M1488 288V289H1489V288H1488ZM1488 192H1487V288H1488H1489V192H1488ZM1488 288V287H1392V288V289H1488V288Z" fill="#D0D5DD" mask="url(#path-97-inside-48_136_92763)"/>
<mask id="path-99-inside-49_136_92763" fill="white">
<path d="M-48 288H48V384H-48V288Z"/>
</mask>
<path d="M-48 288H48V384H-48V288Z" fill="#F2F4F7"/>
<path d="M48 384V385H49V384H48ZM48 288H47V384H48H49V288H48ZM48 384V383H-48V384V385H48V384Z" fill="#D0D5DD" mask="url(#path-99-inside-49_136_92763)"/>
<mask id="path-101-inside-50_136_92763" fill="white">
<path d="M48 288H144V384H48V288Z"/>
</mask>
<path d="M144 384V385H145V384H144ZM144 288H143V384H144H145V288H144ZM144 384V383H48V384V385H144V384Z" fill="#D0D5DD" mask="url(#path-101-inside-50_136_92763)"/>
<mask id="path-103-inside-51_136_92763" fill="white">
<path d="M144 288H240V384H144V288Z"/>
</mask>
<path d="M240 384V385H241V384H240ZM240 288H239V384H240H241V288H240ZM240 384V383H144V384V385H240V384Z" fill="#D0D5DD" mask="url(#path-103-inside-51_136_92763)"/>
<mask id="path-105-inside-52_136_92763" fill="white">
<path d="M240 288H336V384H240V288Z"/>
</mask>
<path d="M336 384V385H337V384H336ZM336 288H335V384H336H337V288H336ZM336 384V383H240V384V385H336V384Z" fill="#D0D5DD" mask="url(#path-105-inside-52_136_92763)"/>
<mask id="path-107-inside-53_136_92763" fill="white">
<path d="M336 288H432V384H336V288Z"/>
</mask>
<path d="M432 384V385H433V384H432ZM432 288H431V384H432H433V288H432ZM432 384V383H336V384V385H432V384Z" fill="#D0D5DD" mask="url(#path-107-inside-53_136_92763)"/>
<mask id="path-109-inside-54_136_92763" fill="white">
<path d="M432 288H528V384H432V288Z"/>
</mask>
<path d="M528 384V385H529V384H528ZM528 288H527V384H528H529V288H528ZM528 384V383H432V384V385H528V384Z" fill="#D0D5DD" mask="url(#path-109-inside-54_136_92763)"/>
<mask id="path-111-inside-55_136_92763" fill="white">
<path d="M528 288H624V384H528V288Z"/>
</mask>
<path d="M624 384V385H625V384H624ZM624 288H623V384H624H625V288H624ZM624 384V383H528V384V385H624V384Z" fill="#D0D5DD" mask="url(#path-111-inside-55_136_92763)"/>
<mask id="path-113-inside-56_136_92763" fill="white">
<path d="M624 288H720V384H624V288Z"/>
</mask>
<path d="M720 384V385H721V384H720ZM720 288H719V384H720H721V288H720ZM720 384V383H624V384V385H720V384Z" fill="#D0D5DD" mask="url(#path-113-inside-56_136_92763)"/>
<mask id="path-115-inside-57_136_92763" fill="white">
<path d="M720 288H816V384H720V288Z"/>
</mask>
<path d="M816 384V385H817V384H816ZM816 288H815V384H816H817V288H816ZM816 384V383H720V384V385H816V384Z" fill="#D0D5DD" mask="url(#path-115-inside-57_136_92763)"/>
<mask id="path-117-inside-58_136_92763" fill="white">
<path d="M816 288H912V384H816V288Z"/>
</mask>
<path d="M912 384V385H913V384H912ZM912 288H911V384H912H913V288H912ZM912 384V383H816V384V385H912V384Z" fill="#D0D5DD" mask="url(#path-117-inside-58_136_92763)"/>
<mask id="path-119-inside-59_136_92763" fill="white">
<path d="M912 288H1008V384H912V288Z"/>
</mask>
<path d="M1008 384V385H1009V384H1008ZM1008 288H1007V384H1008H1009V288H1008ZM1008 384V383H912V384V385H1008V384Z" fill="#D0D5DD" mask="url(#path-119-inside-59_136_92763)"/>
<mask id="path-121-inside-60_136_92763" fill="white">
<path d="M1008 288H1104V384H1008V288Z"/>
</mask>
<path d="M1104 384V385H1105V384H1104ZM1104 288H1103V384H1104H1105V288H1104ZM1104 384V383H1008V384V385H1104V384Z" fill="#D0D5DD" mask="url(#path-121-inside-60_136_92763)"/>
<mask id="path-123-inside-61_136_92763" fill="white">
<path d="M1104 288H1200V384H1104V288Z"/>
</mask>
<path d="M1104 288H1200V384H1104V288Z" fill="#F2F4F7"/>
<path d="M1200 384V385H1201V384H1200ZM1200 288H1199V384H1200H1201V288H1200ZM1200 384V383H1104V384V385H1200V384Z" fill="#D0D5DD" mask="url(#path-123-inside-61_136_92763)"/>
<mask id="path-125-inside-62_136_92763" fill="white">
<path d="M1200 288H1296V384H1200V288Z"/>
</mask>
<path d="M1296 384V385H1297V384H1296ZM1296 288H1295V384H1296H1297V288H1296ZM1296 384V383H1200V384V385H1296V384Z" fill="#D0D5DD" mask="url(#path-125-inside-62_136_92763)"/>
<mask id="path-127-inside-63_136_92763" fill="white">
<path d="M1296 288H1392V384H1296V288Z"/>
</mask>
<path d="M1392 384V385H1393V384H1392ZM1392 288H1391V384H1392H1393V288H1392ZM1392 384V383H1296V384V385H1392V384Z" fill="#D0D5DD" mask="url(#path-127-inside-63_136_92763)"/>
<mask id="path-129-inside-64_136_92763" fill="white">
<path d="M1392 288H1488V384H1392V288Z"/>
</mask>
<path d="M1488 384V385H1489V384H1488ZM1488 288H1487V384H1488H1489V288H1488ZM1488 384V383H1392V384V385H1488V384Z" fill="#D0D5DD" mask="url(#path-129-inside-64_136_92763)"/>
<mask id="path-131-inside-65_136_92763" fill="white">
<path d="M-48 384H48V480H-48V384Z"/>
</mask>
<path d="M48 480V481H49V480H48ZM48 384H47V480H48H49V384H48ZM48 480V479H-48V480V481H48V480Z" fill="#D0D5DD" mask="url(#path-131-inside-65_136_92763)"/>
<mask id="path-133-inside-66_136_92763" fill="white">
<path d="M48 384H144V480H48V384Z"/>
</mask>
<path d="M144 480V481H145V480H144ZM144 384H143V480H144H145V384H144ZM144 480V479H48V480V481H144V480Z" fill="#D0D5DD" mask="url(#path-133-inside-66_136_92763)"/>
<mask id="path-135-inside-67_136_92763" fill="white">
<path d="M144 384H240V480H144V384Z"/>
</mask>
<path d="M240 480V481H241V480H240ZM240 384H239V480H240H241V384H240ZM240 480V479H144V480V481H240V480Z" fill="#D0D5DD" mask="url(#path-135-inside-67_136_92763)"/>
<mask id="path-137-inside-68_136_92763" fill="white">
<path d="M240 384H336V480H240V384Z"/>
</mask>
<path d="M336 480V481H337V480H336ZM336 384H335V480H336H337V384H336ZM336 480V479H240V480V481H336V480Z" fill="#D0D5DD" mask="url(#path-137-inside-68_136_92763)"/>
<mask id="path-139-inside-69_136_92763" fill="white">
<path d="M336 384H432V480H336V384Z"/>
</mask>
<path d="M432 480V481H433V480H432ZM432 384H431V480H432H433V384H432ZM432 480V479H336V480V481H432V480Z" fill="#D0D5DD" mask="url(#path-139-inside-69_136_92763)"/>
<mask id="path-141-inside-70_136_92763" fill="white">
<path d="M432 384H528V480H432V384Z"/>
</mask>
<path d="M528 480V481H529V480H528ZM528 384H527V480H528H529V384H528ZM528 480V479H432V480V481H528V480Z" fill="#D0D5DD" mask="url(#path-141-inside-70_136_92763)"/>
<mask id="path-143-inside-71_136_92763" fill="white">
<path d="M528 384H624V480H528V384Z"/>
</mask>
<path d="M528 384H624V480H528V384Z" fill="#F2F4F7"/>
<path d="M624 480V481H625V480H624ZM624 384H623V480H624H625V384H624ZM624 480V479H528V480V481H624V480Z" fill="#D0D5DD" mask="url(#path-143-inside-71_136_92763)"/>
<mask id="path-145-inside-72_136_92763" fill="white">
<path d="M624 384H720V480H624V384Z"/>
</mask>
<path d="M720 480V481H721V480H720ZM720 384H719V480H720H721V384H720ZM720 480V479H624V480V481H720V480Z" fill="#D0D5DD" mask="url(#path-145-inside-72_136_92763)"/>
<mask id="path-147-inside-73_136_92763" fill="white">
<path d="M720 384H816V480H720V384Z"/>
</mask>
<path d="M816 480V481H817V480H816ZM816 384H815V480H816H817V384H816ZM816 480V479H720V480V481H816V480Z" fill="#D0D5DD" mask="url(#path-147-inside-73_136_92763)"/>
<mask id="path-149-inside-74_136_92763" fill="white">
<path d="M816 384H912V480H816V384Z"/>
</mask>
<path d="M912 480V481H913V480H912ZM912 384H911V480H912H913V384H912ZM912 480V479H816V480V481H912V480Z" fill="#D0D5DD" mask="url(#path-149-inside-74_136_92763)"/>
<mask id="path-151-inside-75_136_92763" fill="white">
<path d="M912 384H1008V480H912V384Z"/>
</mask>
<path d="M1008 480V481H1009V480H1008ZM1008 384H1007V480H1008H1009V384H1008ZM1008 480V479H912V480V481H1008V480Z" fill="#D0D5DD" mask="url(#path-151-inside-75_136_92763)"/>
<mask id="path-153-inside-76_136_92763" fill="white">
<path d="M1008 384H1104V480H1008V384Z"/>
</mask>
<path d="M1104 480V481H1105V480H1104ZM1104 384H1103V480H1104H1105V384H1104ZM1104 480V479H1008V480V481H1104V480Z" fill="#D0D5DD" mask="url(#path-153-inside-76_136_92763)"/>
<mask id="path-155-inside-77_136_92763" fill="white">
<path d="M1104 384H1200V480H1104V384Z"/>
</mask>
<path d="M1200 480V481H1201V480H1200ZM1200 384H1199V480H1200H1201V384H1200ZM1200 480V479H1104V480V481H1200V480Z" fill="#D0D5DD" mask="url(#path-155-inside-77_136_92763)"/>
<mask id="path-157-inside-78_136_92763" fill="white">
<path d="M1200 384H1296V480H1200V384Z"/>
</mask>
<path d="M1296 480V481H1297V480H1296ZM1296 384H1295V480H1296H1297V384H1296ZM1296 480V479H1200V480V481H1296V480Z" fill="#D0D5DD" mask="url(#path-157-inside-78_136_92763)"/>
<mask id="path-159-inside-79_136_92763" fill="white">
<path d="M1296 384H1392V480H1296V384Z"/>
</mask>
<path d="M1392 480V481H1393V480H1392ZM1392 384H1391V480H1392H1393V384H1392ZM1392 480V479H1296V480V481H1392V480Z" fill="#D0D5DD" mask="url(#path-159-inside-79_136_92763)"/>
<mask id="path-161-inside-80_136_92763" fill="white">
<path d="M1392 384H1488V480H1392V384Z"/>
</mask>
<path d="M1488 480V481H1489V480H1488ZM1488 384H1487V480H1488H1489V384H1488ZM1488 480V479H1392V480V481H1488V480Z" fill="#D0D5DD" mask="url(#path-161-inside-80_136_92763)"/>
<mask id="path-163-inside-81_136_92763" fill="white">
<path d="M-48 480H48V576H-48V480Z"/>
</mask>
<path d="M48 576V577H49V576H48ZM48 480H47V576H48H49V480H48ZM48 576V575H-48V576V577H48V576Z" fill="#D0D5DD" mask="url(#path-163-inside-81_136_92763)"/>
<mask id="path-165-inside-82_136_92763" fill="white">
<path d="M48 480H144V576H48V480Z"/>
</mask>
<path d="M144 576V577H145V576H144ZM144 480H143V576H144H145V480H144ZM144 576V575H48V576V577H144V576Z" fill="#D0D5DD" mask="url(#path-165-inside-82_136_92763)"/>
<mask id="path-167-inside-83_136_92763" fill="white">
<path d="M144 480H240V576H144V480Z"/>
</mask>
<path d="M240 576V577H241V576H240ZM240 480H239V576H240H241V480H240ZM240 576V575H144V576V577H240V576Z" fill="#D0D5DD" mask="url(#path-167-inside-83_136_92763)"/>
<mask id="path-169-inside-84_136_92763" fill="white">
<path d="M240 480H336V576H240V480Z"/>
</mask>
<path d="M240 480H336V576H240V480Z" fill="#F2F4F7"/>
<path d="M336 576V577H337V576H336ZM336 480H335V576H336H337V480H336ZM336 576V575H240V576V577H336V576Z" fill="#D0D5DD" mask="url(#path-169-inside-84_136_92763)"/>
<mask id="path-171-inside-85_136_92763" fill="white">
<path d="M336 480H432V576H336V480Z"/>
</mask>
<path d="M432 576V577H433V576H432ZM432 480H431V576H432H433V480H432ZM432 576V575H336V576V577H432V576Z" fill="#D0D5DD" mask="url(#path-171-inside-85_136_92763)"/>
<mask id="path-173-inside-86_136_92763" fill="white">
<path d="M432 480H528V576H432V480Z"/>
</mask>
<path d="M528 576V577H529V576H528ZM528 480H527V576H528H529V480H528ZM528 576V575H432V576V577H528V576Z" fill="#D0D5DD" mask="url(#path-173-inside-86_136_92763)"/>
<mask id="path-175-inside-87_136_92763" fill="white">
<path d="M528 480H624V576H528V480Z"/>
</mask>
<path d="M624 576V577H625V576H624ZM624 480H623V576H624H625V480H624ZM624 576V575H528V576V577H624V576Z" fill="#D0D5DD" mask="url(#path-175-inside-87_136_92763)"/>
<mask id="path-177-inside-88_136_92763" fill="white">
<path d="M624 480H720V576H624V480Z"/>
</mask>
<path d="M720 576V577H721V576H720ZM720 480H719V576H720H721V480H720ZM720 576V575H624V576V577H720V576Z" fill="#D0D5DD" mask="url(#path-177-inside-88_136_92763)"/>
<mask id="path-179-inside-89_136_92763" fill="white">
<path d="M720 480H816V576H720V480Z"/>
</mask>
<path d="M816 576V577H817V576H816ZM816 480H815V576H816H817V480H816ZM816 576V575H720V576V577H816V576Z" fill="#D0D5DD" mask="url(#path-179-inside-89_136_92763)"/>
<mask id="path-181-inside-90_136_92763" fill="white">
<path d="M816 480H912V576H816V480Z"/>
</mask>
<path d="M816 480H912V576H816V480Z" fill="#F2F4F7"/>
<path d="M912 576V577H913V576H912ZM912 480H911V576H912H913V480H912ZM912 576V575H816V576V577H912V576Z" fill="#D0D5DD" mask="url(#path-181-inside-90_136_92763)"/>
<mask id="path-183-inside-91_136_92763" fill="white">
<path d="M912 480H1008V576H912V480Z"/>
</mask>
<path d="M1008 576V577H1009V576H1008ZM1008 480H1007V576H1008H1009V480H1008ZM1008 576V575H912V576V577H1008V576Z" fill="#D0D5DD" mask="url(#path-183-inside-91_136_92763)"/>
<mask id="path-185-inside-92_136_92763" fill="white">
<path d="M1008 480H1104V576H1008V480Z"/>
</mask>
<path d="M1104 576V577H1105V576H1104ZM1104 480H1103V576H1104H1105V480H1104ZM1104 576V575H1008V576V577H1104V576Z" fill="#D0D5DD" mask="url(#path-185-inside-92_136_92763)"/>
<mask id="path-187-inside-93_136_92763" fill="white">
<path d="M1104 480H1200V576H1104V480Z"/>
</mask>
<path d="M1200 576V577H1201V576H1200ZM1200 480H1199V576H1200H1201V480H1200ZM1200 576V575H1104V576V577H1200V576Z" fill="#D0D5DD" mask="url(#path-187-inside-93_136_92763)"/>
<mask id="path-189-inside-94_136_92763" fill="white">
<path d="M1200 480H1296V576H1200V480Z"/>
</mask>
<path d="M1296 576V577H1297V576H1296ZM1296 480H1295V576H1296H1297V480H1296ZM1296 576V575H1200V576V577H1296V576Z" fill="#D0D5DD" mask="url(#path-189-inside-94_136_92763)"/>
<mask id="path-191-inside-95_136_92763" fill="white">
<path d="M1296 480H1392V576H1296V480Z"/>
</mask>
<path d="M1392 576V577H1393V576H1392ZM1392 480H1391V576H1392H1393V480H1392ZM1392 576V575H1296V576V577H1392V576Z" fill="#D0D5DD" mask="url(#path-191-inside-95_136_92763)"/>
<mask id="path-193-inside-96_136_92763" fill="white">
<path d="M1392 480H1488V576H1392V480Z"/>
</mask>
<path d="M1488 576V577H1489V576H1488ZM1488 480H1487V576H1488H1489V480H1488ZM1488 576V575H1392V576V577H1488V576Z" fill="#D0D5DD" mask="url(#path-193-inside-96_136_92763)"/>
<mask id="path-195-inside-97_136_92763" fill="white">
<path d="M-48 576H48V672H-48V576Z"/>
</mask>
<path d="M48 672V673H49V672H48ZM48 576H47V672H48H49V576H48ZM48 672V671H-48V672V673H48V672Z" fill="#D0D5DD" mask="url(#path-195-inside-97_136_92763)"/>
<mask id="path-197-inside-98_136_92763" fill="white">
<path d="M48 576H144V672H48V576Z"/>
</mask>
<path d="M48 576H144V672H48V576Z" fill="#F2F4F7"/>
<path d="M144 672V673H145V672H144ZM144 576H143V672H144H145V576H144ZM144 672V671H48V672V673H144V672Z" fill="#D0D5DD" mask="url(#path-197-inside-98_136_92763)"/>
<mask id="path-199-inside-99_136_92763" fill="white">
<path d="M144 576H240V672H144V576Z"/>
</mask>
<path d="M240 672V673H241V672H240ZM240 576H239V672H240H241V576H240ZM240 672V671H144V672V673H240V672Z" fill="#D0D5DD" mask="url(#path-199-inside-99_136_92763)"/>
<mask id="path-201-inside-100_136_92763" fill="white">
<path d="M240 576H336V672H240V576Z"/>
</mask>
<path d="M336 672V673H337V672H336ZM336 576H335V672H336H337V576H336ZM336 672V671H240V672V673H336V672Z" fill="#D0D5DD" mask="url(#path-201-inside-100_136_92763)"/>
<mask id="path-203-inside-101_136_92763" fill="white">
<path d="M336 576H432V672H336V576Z"/>
</mask>
<path d="M432 672V673H433V672H432ZM432 576H431V672H432H433V576H432ZM432 672V671H336V672V673H432V672Z" fill="#D0D5DD" mask="url(#path-203-inside-101_136_92763)"/>
<mask id="path-205-inside-102_136_92763" fill="white">
<path d="M432 576H528V672H432V576Z"/>
</mask>
<path d="M528 672V673H529V672H528ZM528 576H527V672H528H529V576H528ZM528 672V671H432V672V673H528V672Z" fill="#D0D5DD" mask="url(#path-205-inside-102_136_92763)"/>
<mask id="path-207-inside-103_136_92763" fill="white">
<path d="M528 576H624V672H528V576Z"/>
</mask>
<path d="M624 672V673H625V672H624ZM624 576H623V672H624H625V576H624ZM624 672V671H528V672V673H624V672Z" fill="#D0D5DD" mask="url(#path-207-inside-103_136_92763)"/>
<mask id="path-209-inside-104_136_92763" fill="white">
<path d="M624 576H720V672H624V576Z"/>
</mask>
<path d="M720 672V673H721V672H720ZM720 576H719V672H720H721V576H720ZM720 672V671H624V672V673H720V672Z" fill="#D0D5DD" mask="url(#path-209-inside-104_136_92763)"/>
<mask id="path-211-inside-105_136_92763" fill="white">
<path d="M720 576H816V672H720V576Z"/>
</mask>
<path d="M816 672V673H817V672H816ZM816 576H815V672H816H817V576H816ZM816 672V671H720V672V673H816V672Z" fill="#D0D5DD" mask="url(#path-211-inside-105_136_92763)"/>
<mask id="path-213-inside-106_136_92763" fill="white">
<path d="M816 576H912V672H816V576Z"/>
</mask>
<path d="M912 672V673H913V672H912ZM912 576H911V672H912H913V576H912ZM912 672V671H816V672V673H912V672Z" fill="#D0D5DD" mask="url(#path-213-inside-106_136_92763)"/>
<mask id="path-215-inside-107_136_92763" fill="white">
<path d="M912 576H1008V672H912V576Z"/>
</mask>
<path d="M1008 672V673H1009V672H1008ZM1008 576H1007V672H1008H1009V576H1008ZM1008 672V671H912V672V673H1008V672Z" fill="#D0D5DD" mask="url(#path-215-inside-107_136_92763)"/>
<mask id="path-217-inside-108_136_92763" fill="white">
<path d="M1008 576H1104V672H1008V576Z"/>
</mask>
<path d="M1104 672V673H1105V672H1104ZM1104 576H1103V672H1104H1105V576H1104ZM1104 672V671H1008V672V673H1104V672Z" fill="#D0D5DD" mask="url(#path-217-inside-108_136_92763)"/>
<mask id="path-219-inside-109_136_92763" fill="white">
<path d="M1104 576H1200V672H1104V576Z"/>
</mask>
<path d="M1200 672V673H1201V672H1200ZM1200 576H1199V672H1200H1201V576H1200ZM1200 672V671H1104V672V673H1200V672Z" fill="#D0D5DD" mask="url(#path-219-inside-109_136_92763)"/>
<mask id="path-221-inside-110_136_92763" fill="white">
<path d="M1200 576H1296V672H1200V576Z"/>
</mask>
<path d="M1296 672V673H1297V672H1296ZM1296 576H1295V672H1296H1297V576H1296ZM1296 672V671H1200V672V673H1296V672Z" fill="#D0D5DD" mask="url(#path-221-inside-110_136_92763)"/>
<mask id="path-223-inside-111_136_92763" fill="white">
<path d="M1296 576H1392V672H1296V576Z"/>
</mask>
<path d="M1296 576H1392V672H1296V576Z" fill="#F2F4F7"/>
<path d="M1392 672V673H1393V672H1392ZM1392 576H1391V672H1392H1393V576H1392ZM1392 672V671H1296V672V673H1392V672Z" fill="#D0D5DD" mask="url(#path-223-inside-111_136_92763)"/>
<mask id="path-225-inside-112_136_92763" fill="white">
<path d="M1392 576H1488V672H1392V576Z"/>
</mask>
<path d="M1488 672V673H1489V672H1488ZM1488 576H1487V672H1488H1489V576H1488ZM1488 672V671H1392V672V673H1488V672Z" fill="#D0D5DD" mask="url(#path-225-inside-112_136_92763)"/>
<mask id="path-227-inside-113_136_92763" fill="white">
<path d="M-48 672H48V768H-48V672Z"/>
</mask>
<path d="M48 768V769H49V768H48ZM48 672H47V768H48H49V672H48ZM48 768V767H-48V768V769H48V768Z" fill="#D0D5DD" mask="url(#path-227-inside-113_136_92763)"/>
<mask id="path-229-inside-114_136_92763" fill="white">
<path d="M48 672H144V768H48V672Z"/>
</mask>
<path d="M144 768V769H145V768H144ZM144 672H143V768H144H145V672H144ZM144 768V767H48V768V769H144V768Z" fill="#D0D5DD" mask="url(#path-229-inside-114_136_92763)"/>
<mask id="path-231-inside-115_136_92763" fill="white">
<path d="M144 672H240V768H144V672Z"/>
</mask>
<path d="M240 768V769H241V768H240ZM240 672H239V768H240H241V672H240ZM240 768V767H144V768V769H240V768Z" fill="#D0D5DD" mask="url(#path-231-inside-115_136_92763)"/>
<mask id="path-233-inside-116_136_92763" fill="white">
<path d="M240 672H336V768H240V672Z"/>
</mask>
<path d="M336 768V769H337V768H336ZM336 672H335V768H336H337V672H336ZM336 768V767H240V768V769H336V768Z" fill="#D0D5DD" mask="url(#path-233-inside-116_136_92763)"/>
<mask id="path-235-inside-117_136_92763" fill="white">
<path d="M336 672H432V768H336V672Z"/>
</mask>
<path d="M432 768V769H433V768H432ZM432 672H431V768H432H433V672H432ZM432 768V767H336V768V769H432V768Z" fill="#D0D5DD" mask="url(#path-235-inside-117_136_92763)"/>
<mask id="path-237-inside-118_136_92763" fill="white">
<path d="M432 672H528V768H432V672Z"/>
</mask>
<path d="M528 768V769H529V768H528ZM528 672H527V768H528H529V672H528ZM528 768V767H432V768V769H528V768Z" fill="#D0D5DD" mask="url(#path-237-inside-118_136_92763)"/>
<mask id="path-239-inside-119_136_92763" fill="white">
<path d="M528 672H624V768H528V672Z"/>
</mask>
<path d="M528 672H624V768H528V672Z" fill="#F2F4F7"/>
<path d="M624 768V769H625V768H624ZM624 672H623V768H624H625V672H624ZM624 768V767H528V768V769H624V768Z" fill="#D0D5DD" mask="url(#path-239-inside-119_136_92763)"/>
<mask id="path-241-inside-120_136_92763" fill="white">
<path d="M624 672H720V768H624V672Z"/>
</mask>
<path d="M720 768V769H721V768H720ZM720 672H719V768H720H721V672H720ZM720 768V767H624V768V769H720V768Z" fill="#D0D5DD" mask="url(#path-241-inside-120_136_92763)"/>
<mask id="path-243-inside-121_136_92763" fill="white">
<path d="M720 672H816V768H720V672Z"/>
</mask>
<path d="M816 768V769H817V768H816ZM816 672H815V768H816H817V672H816ZM816 768V767H720V768V769H816V768Z" fill="#D0D5DD" mask="url(#path-243-inside-121_136_92763)"/>
<mask id="path-245-inside-122_136_92763" fill="white">
<path d="M816 672H912V768H816V672Z"/>
</mask>
<path d="M912 768V769H913V768H912ZM912 672H911V768H912H913V672H912ZM912 768V767H816V768V769H912V768Z" fill="#D0D5DD" mask="url(#path-245-inside-122_136_92763)"/>
<mask id="path-247-inside-123_136_92763" fill="white">
<path d="M912 672H1008V768H912V672Z"/>
</mask>
<path d="M1008 768V769H1009V768H1008ZM1008 672H1007V768H1008H1009V672H1008ZM1008 768V767H912V768V769H1008V768Z" fill="#D0D5DD" mask="url(#path-247-inside-123_136_92763)"/>
<mask id="path-249-inside-124_136_92763" fill="white">
<path d="M1008 672H1104V768H1008V672Z"/>
</mask>
<path d="M1104 768V769H1105V768H1104ZM1104 672H1103V768H1104H1105V672H1104ZM1104 768V767H1008V768V769H1104V768Z" fill="#D0D5DD" mask="url(#path-249-inside-124_136_92763)"/>
<mask id="path-251-inside-125_136_92763" fill="white">
<path d="M1104 672H1200V768H1104V672Z"/>
</mask>
<path d="M1104 672H1200V768H1104V672Z" fill="#F2F4F7"/>
<path d="M1200 768V769H1201V768H1200ZM1200 672H1199V768H1200H1201V672H1200ZM1200 768V767H1104V768V769H1200V768Z" fill="#D0D5DD" mask="url(#path-251-inside-125_136_92763)"/>
<mask id="path-253-inside-126_136_92763" fill="white">
<path d="M1200 672H1296V768H1200V672Z"/>
</mask>
<path d="M1296 768V769H1297V768H1296ZM1296 672H1295V768H1296H1297V672H1296ZM1296 768V767H1200V768V769H1296V768Z" fill="#D0D5DD" mask="url(#path-253-inside-126_136_92763)"/>
<mask id="path-255-inside-127_136_92763" fill="white">
<path d="M1296 672H1392V768H1296V672Z"/>
</mask>
<path d="M1392 768V769H1393V768H1392ZM1392 672H1391V768H1392H1393V672H1392ZM1392 768V767H1296V768V769H1392V768Z" fill="#D0D5DD" mask="url(#path-255-inside-127_136_92763)"/>
<mask id="path-257-inside-128_136_92763" fill="white">
<path d="M1392 672H1488V768H1392V672Z"/>
</mask>
<path d="M1488 768V769H1489V768H1488ZM1488 672H1487V768H1488H1489V672H1488ZM1488 768V767H1392V768V769H1488V768Z" fill="#D0D5DD" mask="url(#path-257-inside-128_136_92763)"/>
<mask id="path-259-inside-129_136_92763" fill="white">
<path d="M-48 768H48V864H-48V768Z"/>
</mask>
<path d="M48 864V865H49V864H48ZM48 768H47V864H48H49V768H48ZM48 864V863H-48V864V865H48V864Z" fill="#D0D5DD" mask="url(#path-259-inside-129_136_92763)"/>
<mask id="path-261-inside-130_136_92763" fill="white">
<path d="M48 768H144V864H48V768Z"/>
</mask>
<path d="M144 864V865H145V864H144ZM144 768H143V864H144H145V768H144ZM144 864V863H48V864V865H144V864Z" fill="#D0D5DD" mask="url(#path-261-inside-130_136_92763)"/>
<mask id="path-263-inside-131_136_92763" fill="white">
<path d="M144 768H240V864H144V768Z"/>
</mask>
<path d="M240 864V865H241V864H240ZM240 768H239V864H240H241V768H240ZM240 864V863H144V864V865H240V864Z" fill="#D0D5DD" mask="url(#path-263-inside-131_136_92763)"/>
<mask id="path-265-inside-132_136_92763" fill="white">
<path d="M240 768H336V864H240V768Z"/>
</mask>
<path d="M240 768H336V864H240V768Z" fill="#F2F4F7"/>
<path d="M336 864V865H337V864H336ZM336 768H335V864H336H337V768H336ZM336 864V863H240V864V865H336V864Z" fill="#D0D5DD" mask="url(#path-265-inside-132_136_92763)"/>
<mask id="path-267-inside-133_136_92763" fill="white">
<path d="M336 768H432V864H336V768Z"/>
</mask>
<path d="M432 864V865H433V864H432ZM432 768H431V864H432H433V768H432ZM432 864V863H336V864V865H432V864Z" fill="#D0D5DD" mask="url(#path-267-inside-133_136_92763)"/>
<mask id="path-269-inside-134_136_92763" fill="white">
<path d="M432 768H528V864H432V768Z"/>
</mask>
<path d="M528 864V865H529V864H528ZM528 768H527V864H528H529V768H528ZM528 864V863H432V864V865H528V864Z" fill="#D0D5DD" mask="url(#path-269-inside-134_136_92763)"/>
<mask id="path-271-inside-135_136_92763" fill="white">
<path d="M528 768H624V864H528V768Z"/>
</mask>
<path d="M624 864V865H625V864H624ZM624 768H623V864H624H625V768H624ZM624 864V863H528V864V865H624V864Z" fill="#D0D5DD" mask="url(#path-271-inside-135_136_92763)"/>
<mask id="path-273-inside-136_136_92763" fill="white">
<path d="M624 768H720V864H624V768Z"/>
</mask>
<path d="M720 864V865H721V864H720ZM720 768H719V864H720H721V768H720ZM720 864V863H624V864V865H720V864Z" fill="#D0D5DD" mask="url(#path-273-inside-136_136_92763)"/>
<mask id="path-275-inside-137_136_92763" fill="white">
<path d="M720 768H816V864H720V768Z"/>
</mask>
<path d="M816 864V865H817V864H816ZM816 768H815V864H816H817V768H816ZM816 864V863H720V864V865H816V864Z" fill="#D0D5DD" mask="url(#path-275-inside-137_136_92763)"/>
<mask id="path-277-inside-138_136_92763" fill="white">
<path d="M816 768H912V864H816V768Z"/>
</mask>
<path d="M816 768H912V864H816V768Z" fill="#F2F4F7"/>
<path d="M912 864V865H913V864H912ZM912 768H911V864H912H913V768H912ZM912 864V863H816V864V865H912V864Z" fill="#D0D5DD" mask="url(#path-277-inside-138_136_92763)"/>
<mask id="path-279-inside-139_136_92763" fill="white">
<path d="M912 768H1008V864H912V768Z"/>
</mask>
<path d="M1008 864V865H1009V864H1008ZM1008 768H1007V864H1008H1009V768H1008ZM1008 864V863H912V864V865H1008V864Z" fill="#D0D5DD" mask="url(#path-279-inside-139_136_92763)"/>
<mask id="path-281-inside-140_136_92763" fill="white">
<path d="M1008 768H1104V864H1008V768Z"/>
</mask>
<path d="M1104 864V865H1105V864H1104ZM1104 768H1103V864H1104H1105V768H1104ZM1104 864V863H1008V864V865H1104V864Z" fill="#D0D5DD" mask="url(#path-281-inside-140_136_92763)"/>
<mask id="path-283-inside-141_136_92763" fill="white">
<path d="M1104 768H1200V864H1104V768Z"/>
</mask>
<path d="M1200 864V865H1201V864H1200ZM1200 768H1199V864H1200H1201V768H1200ZM1200 864V863H1104V864V865H1200V864Z" fill="#D0D5DD" mask="url(#path-283-inside-141_136_92763)"/>
<mask id="path-285-inside-142_136_92763" fill="white">
<path d="M1200 768H1296V864H1200V768Z"/>
</mask>
<path d="M1296 864V865H1297V864H1296ZM1296 768H1295V864H1296H1297V768H1296ZM1296 864V863H1200V864V865H1296V864Z" fill="#D0D5DD" mask="url(#path-285-inside-142_136_92763)"/>
<mask id="path-287-inside-143_136_92763" fill="white">
<path d="M1296 768H1392V864H1296V768Z"/>
</mask>
<path d="M1392 864V865H1393V864H1392ZM1392 768H1391V864H1392H1393V768H1392ZM1392 864V863H1296V864V865H1392V864Z" fill="#D0D5DD" mask="url(#path-287-inside-143_136_92763)"/>
<mask id="path-289-inside-144_136_92763" fill="white">
<path d="M1392 768H1488V864H1392V768Z"/>
</mask>
<path d="M1488 864V865H1489V864H1488ZM1488 768H1487V864H1488H1489V768H1488ZM1488 864V863H1392V864V865H1488V864Z" fill="#D0D5DD" mask="url(#path-289-inside-144_136_92763)"/>
<mask id="path-291-inside-145_136_92763" fill="white">
<path d="M-48 864H48V960H-48V864Z"/>
</mask>
<path d="M48 960V961H49V960H48ZM48 864H47V960H48H49V864H48ZM48 960V959H-48V960V961H48V960Z" fill="#D0D5DD" mask="url(#path-291-inside-145_136_92763)"/>
<mask id="path-293-inside-146_136_92763" fill="white">
<path d="M48 864H144V960H48V864Z"/>
</mask>
<path d="M144 960V961H145V960H144ZM144 864H143V960H144H145V864H144ZM144 960V959H48V960V961H144V960Z" fill="#D0D5DD" mask="url(#path-293-inside-146_136_92763)"/>
<mask id="path-295-inside-147_136_92763" fill="white">
<path d="M144 864H240V960H144V864Z"/>
</mask>
<path d="M240 960V961H241V960H240ZM240 864H239V960H240H241V864H240ZM240 960V959H144V960V961H240V960Z" fill="#D0D5DD" mask="url(#path-295-inside-147_136_92763)"/>
<mask id="path-297-inside-148_136_92763" fill="white">
<path d="M240 864H336V960H240V864Z"/>
</mask>
<path d="M336 960V961H337V960H336ZM336 864H335V960H336H337V864H336ZM336 960V959H240V960V961H336V960Z" fill="#D0D5DD" mask="url(#path-297-inside-148_136_92763)"/>
<mask id="path-299-inside-149_136_92763" fill="white">
<path d="M336 864H432V960H336V864Z"/>
</mask>
<path d="M432 960V961H433V960H432ZM432 864H431V960H432H433V864H432ZM432 960V959H336V960V961H432V960Z" fill="#D0D5DD" mask="url(#path-299-inside-149_136_92763)"/>
<mask id="path-301-inside-150_136_92763" fill="white">
<path d="M432 864H528V960H432V864Z"/>
</mask>
<path d="M528 960V961H529V960H528ZM528 864H527V960H528H529V864H528ZM528 960V959H432V960V961H528V960Z" fill="#D0D5DD" mask="url(#path-301-inside-150_136_92763)"/>
<mask id="path-303-inside-151_136_92763" fill="white">
<path d="M528 864H624V960H528V864Z"/>
</mask>
<path d="M624 960V961H625V960H624ZM624 864H623V960H624H625V864H624ZM624 960V959H528V960V961H624V960Z" fill="#D0D5DD" mask="url(#path-303-inside-151_136_92763)"/>
<mask id="path-305-inside-152_136_92763" fill="white">
<path d="M624 864H720V960H624V864Z"/>
</mask>
<path d="M720 960V961H721V960H720ZM720 864H719V960H720H721V864H720ZM720 960V959H624V960V961H720V960Z" fill="#D0D5DD" mask="url(#path-305-inside-152_136_92763)"/>
<mask id="path-307-inside-153_136_92763" fill="white">
<path d="M720 864H816V960H720V864Z"/>
</mask>
<path d="M816 960V961H817V960H816ZM816 864H815V960H816H817V864H816ZM816 960V959H720V960V961H816V960Z" fill="#D0D5DD" mask="url(#path-307-inside-153_136_92763)"/>
<mask id="path-309-inside-154_136_92763" fill="white">
<path d="M816 864H912V960H816V864Z"/>
</mask>
<path d="M912 960V961H913V960H912ZM912 864H911V960H912H913V864H912ZM912 960V959H816V960V961H912V960Z" fill="#D0D5DD" mask="url(#path-309-inside-154_136_92763)"/>
<mask id="path-311-inside-155_136_92763" fill="white">
<path d="M912 864H1008V960H912V864Z"/>
</mask>
<path d="M1008 960V961H1009V960H1008ZM1008 864H1007V960H1008H1009V864H1008ZM1008 960V959H912V960V961H1008V960Z" fill="#D0D5DD" mask="url(#path-311-inside-155_136_92763)"/>
<mask id="path-313-inside-156_136_92763" fill="white">
<path d="M1008 864H1104V960H1008V864Z"/>
</mask>
<path d="M1104 960V961H1105V960H1104ZM1104 864H1103V960H1104H1105V864H1104ZM1104 960V959H1008V960V961H1104V960Z" fill="#D0D5DD" mask="url(#path-313-inside-156_136_92763)"/>
<mask id="path-315-inside-157_136_92763" fill="white">
<path d="M1104 864H1200V960H1104V864Z"/>
</mask>
<path d="M1200 960V961H1201V960H1200ZM1200 864H1199V960H1200H1201V864H1200ZM1200 960V959H1104V960V961H1200V960Z" fill="#D0D5DD" mask="url(#path-315-inside-157_136_92763)"/>
<mask id="path-317-inside-158_136_92763" fill="white">
<path d="M1200 864H1296V960H1200V864Z"/>
</mask>
<path d="M1296 960V961H1297V960H1296ZM1296 864H1295V960H1296H1297V864H1296ZM1296 960V959H1200V960V961H1296V960Z" fill="#D0D5DD" mask="url(#path-317-inside-158_136_92763)"/>
<mask id="path-319-inside-159_136_92763" fill="white">
<path d="M1296 864H1392V960H1296V864Z"/>
</mask>
<path d="M1392 960V961H1393V960H1392ZM1392 864H1391V960H1392H1393V864H1392ZM1392 960V959H1296V960V961H1392V960Z" fill="#D0D5DD" mask="url(#path-319-inside-159_136_92763)"/>
<mask id="path-321-inside-160_136_92763" fill="white">
<path d="M1392 864H1488V960H1392V864Z"/>
</mask>
<path d="M1392 864H1488V960H1392V864Z" fill="#F2F4F7"/>
<path d="M1488 960V961H1489V960H1488ZM1488 864H1487V960H1488H1489V864H1488ZM1488 960V959H1392V960V961H1488V960Z" fill="#D0D5DD" mask="url(#path-321-inside-160_136_92763)"/>
<mask id="path-323-inside-161_136_92763" fill="white">
<path d="M-48 960H48V1056H-48V960Z"/>
</mask>
<path d="M48 1056V1057H49V1056H48ZM48 960H47V1056H48H49V960H48ZM48 1056V1055H-48V1056V1057H48V1056Z" fill="#D0D5DD" mask="url(#path-323-inside-161_136_92763)"/>
<mask id="path-325-inside-162_136_92763" fill="white">
<path d="M48 960H144V1056H48V960Z"/>
</mask>
<path d="M144 1056V1057H145V1056H144ZM144 960H143V1056H144H145V960H144ZM144 1056V1055H48V1056V1057H144V1056Z" fill="#D0D5DD" mask="url(#path-325-inside-162_136_92763)"/>
<mask id="path-327-inside-163_136_92763" fill="white">
<path d="M144 960H240V1056H144V960Z"/>
</mask>
<path d="M240 1056V1057H241V1056H240ZM240 960H239V1056H240H241V960H240ZM240 1056V1055H144V1056V1057H240V1056Z" fill="#D0D5DD" mask="url(#path-327-inside-163_136_92763)"/>
<mask id="path-329-inside-164_136_92763" fill="white">
<path d="M240 960H336V1056H240V960Z"/>
</mask>
<path d="M336 1056V1057H337V1056H336ZM336 960H335V1056H336H337V960H336ZM336 1056V1055H240V1056V1057H336V1056Z" fill="#D0D5DD" mask="url(#path-329-inside-164_136_92763)"/>
<mask id="path-331-inside-165_136_92763" fill="white">
<path d="M336 960H432V1056H336V960Z"/>
</mask>
<path d="M336 960H432V1056H336V960Z" fill="#F2F4F7"/>
<path d="M432 1056V1057H433V1056H432ZM432 960H431V1056H432H433V960H432ZM432 1056V1055H336V1056V1057H432V1056Z" fill="#D0D5DD" mask="url(#path-331-inside-165_136_92763)"/>
<mask id="path-333-inside-166_136_92763" fill="white">
<path d="M432 960H528V1056H432V960Z"/>
</mask>
<path d="M528 1056V1057H529V1056H528ZM528 960H527V1056H528H529V960H528ZM528 1056V1055H432V1056V1057H528V1056Z" fill="#D0D5DD" mask="url(#path-333-inside-166_136_92763)"/>
<mask id="path-335-inside-167_136_92763" fill="white">
<path d="M528 960H624V1056H528V960Z"/>
</mask>
<path d="M624 1056V1057H625V1056H624ZM624 960H623V1056H624H625V960H624ZM624 1056V1055H528V1056V1057H624V1056Z" fill="#D0D5DD" mask="url(#path-335-inside-167_136_92763)"/>
<mask id="path-337-inside-168_136_92763" fill="white">
<path d="M624 960H720V1056H624V960Z"/>
</mask>
<path d="M720 1056V1057H721V1056H720ZM720 960H719V1056H720H721V960H720ZM720 1056V1055H624V1056V1057H720V1056Z" fill="#D0D5DD" mask="url(#path-337-inside-168_136_92763)"/>
<mask id="path-339-inside-169_136_92763" fill="white">
<path d="M720 960H816V1056H720V960Z"/>
</mask>
<path d="M720 960H816V1056H720V960Z" fill="#F2F4F7"/>
<path d="M816 1056V1057H817V1056H816ZM816 960H815V1056H816H817V960H816ZM816 1056V1055H720V1056V1057H816V1056Z" fill="#D0D5DD" mask="url(#path-339-inside-169_136_92763)"/>
<mask id="path-341-inside-170_136_92763" fill="white">
<path d="M816 960H912V1056H816V960Z"/>
</mask>
<path d="M912 1056V1057H913V1056H912ZM912 960H911V1056H912H913V960H912ZM912 1056V1055H816V1056V1057H912V1056Z" fill="#D0D5DD" mask="url(#path-341-inside-170_136_92763)"/>
<mask id="path-343-inside-171_136_92763" fill="white">
<path d="M912 960H1008V1056H912V960Z"/>
</mask>
<path d="M1008 1056V1057H1009V1056H1008ZM1008 960H1007V1056H1008H1009V960H1008ZM1008 1056V1055H912V1056V1057H1008V1056Z" fill="#D0D5DD" mask="url(#path-343-inside-171_136_92763)"/>
<mask id="path-345-inside-172_136_92763" fill="white">
<path d="M1008 960H1104V1056H1008V960Z"/>
</mask>
<path d="M1104 1056V1057H1105V1056H1104ZM1104 960H1103V1056H1104H1105V960H1104ZM1104 1056V1055H1008V1056V1057H1104V1056Z" fill="#D0D5DD" mask="url(#path-345-inside-172_136_92763)"/>
<mask id="path-347-inside-173_136_92763" fill="white">
<path d="M1104 960H1200V1056H1104V960Z"/>
</mask>
<path d="M1200 1056V1057H1201V1056H1200ZM1200 960H1199V1056H1200H1201V960H1200ZM1200 1056V1055H1104V1056V1057H1200V1056Z" fill="#D0D5DD" mask="url(#path-347-inside-173_136_92763)"/>
<mask id="path-349-inside-174_136_92763" fill="white">
<path d="M1200 960H1296V1056H1200V960Z"/>
</mask>
<path d="M1296 1056V1057H1297V1056H1296ZM1296 960H1295V1056H1296H1297V960H1296ZM1296 1056V1055H1200V1056V1057H1296V1056Z" fill="#D0D5DD" mask="url(#path-349-inside-174_136_92763)"/>
<mask id="path-351-inside-175_136_92763" fill="white">
<path d="M1296 960H1392V1056H1296V960Z"/>
</mask>
<path d="M1392 1056V1057H1393V1056H1392ZM1392 960H1391V1056H1392H1393V960H1392ZM1392 1056V1055H1296V1056V1057H1392V1056Z" fill="#D0D5DD" mask="url(#path-351-inside-175_136_92763)"/>
<mask id="path-353-inside-176_136_92763" fill="white">
<path d="M1392 960H1488V1056H1392V960Z"/>
</mask>
<path d="M1488 1056V1057H1489V1056H1488ZM1488 960H1487V1056H1488H1489V960H1488ZM1488 1056V1055H1392V1056V1057H1488V1056Z" fill="#D0D5DD" mask="url(#path-353-inside-176_136_92763)"/>
<mask id="path-355-inside-177_136_92763" fill="white">
<path d="M-48 1056H48V1152H-48V1056Z"/>
</mask>
<path d="M-48 1056H48V1152H-48V1056Z" fill="#F2F4F7"/>
<path d="M48 1152V1153H49V1152H48ZM48 1056H47V1152H48H49V1056H48ZM48 1152V1151H-48V1152V1153H48V1152Z" fill="#D0D5DD" mask="url(#path-355-inside-177_136_92763)"/>
<mask id="path-357-inside-178_136_92763" fill="white">
<path d="M48 1056H144V1152H48V1056Z"/>
</mask>
<path d="M144 1152V1153H145V1152H144ZM144 1056H143V1152H144H145V1056H144ZM144 1152V1151H48V1152V1153H144V1152Z" fill="#D0D5DD" mask="url(#path-357-inside-178_136_92763)"/>
<mask id="path-359-inside-179_136_92763" fill="white">
<path d="M144 1056H240V1152H144V1056Z"/>
</mask>
<path d="M240 1152V1153H241V1152H240ZM240 1056H239V1152H240H241V1056H240ZM240 1152V1151H144V1152V1153H240V1152Z" fill="#D0D5DD" mask="url(#path-359-inside-179_136_92763)"/>
<mask id="path-361-inside-180_136_92763" fill="white">
<path d="M240 1056H336V1152H240V1056Z"/>
</mask>
<path d="M336 1152V1153H337V1152H336ZM336 1056H335V1152H336H337V1056H336ZM336 1152V1151H240V1152V1153H336V1152Z" fill="#D0D5DD" mask="url(#path-361-inside-180_136_92763)"/>
<mask id="path-363-inside-181_136_92763" fill="white">
<path d="M336 1056H432V1152H336V1056Z"/>
</mask>
<path d="M432 1152V1153H433V1152H432ZM432 1056H431V1152H432H433V1056H432ZM432 1152V1151H336V1152V1153H432V1152Z" fill="#D0D5DD" mask="url(#path-363-inside-181_136_92763)"/>
<mask id="path-365-inside-182_136_92763" fill="white">
<path d="M432 1056H528V1152H432V1056Z"/>
</mask>
<path d="M528 1152V1153H529V1152H528ZM528 1056H527V1152H528H529V1056H528ZM528 1152V1151H432V1152V1153H528V1152Z" fill="#D0D5DD" mask="url(#path-365-inside-182_136_92763)"/>
<mask id="path-367-inside-183_136_92763" fill="white">
<path d="M528 1056H624V1152H528V1056Z"/>
</mask>
<path d="M624 1152V1153H625V1152H624ZM624 1056H623V1152H624H625V1056H624ZM624 1152V1151H528V1152V1153H624V1152Z" fill="#D0D5DD" mask="url(#path-367-inside-183_136_92763)"/>
<mask id="path-369-inside-184_136_92763" fill="white">
<path d="M624 1056H720V1152H624V1056Z"/>
</mask>
<path d="M720 1152V1153H721V1152H720ZM720 1056H719V1152H720H721V1056H720ZM720 1152V1151H624V1152V1153H720V1152Z" fill="#D0D5DD" mask="url(#path-369-inside-184_136_92763)"/>
<mask id="path-371-inside-185_136_92763" fill="white">
<path d="M720 1056H816V1152H720V1056Z"/>
</mask>
<path d="M816 1152V1153H817V1152H816ZM816 1056H815V1152H816H817V1056H816ZM816 1152V1151H720V1152V1153H816V1152Z" fill="#D0D5DD" mask="url(#path-371-inside-185_136_92763)"/>
<mask id="path-373-inside-186_136_92763" fill="white">
<path d="M816 1056H912V1152H816V1056Z"/>
</mask>
<path d="M912 1152V1153H913V1152H912ZM912 1056H911V1152H912H913V1056H912ZM912 1152V1151H816V1152V1153H912V1152Z" fill="#D0D5DD" mask="url(#path-373-inside-186_136_92763)"/>
<mask id="path-375-inside-187_136_92763" fill="white">
<path d="M912 1056H1008V1152H912V1056Z"/>
</mask>
<path d="M1008 1152V1153H1009V1152H1008ZM1008 1056H1007V1152H1008H1009V1056H1008ZM1008 1152V1151H912V1152V1153H1008V1152Z" fill="#D0D5DD" mask="url(#path-375-inside-187_136_92763)"/>
<mask id="path-377-inside-188_136_92763" fill="white">
<path d="M1008 1056H1104V1152H1008V1056Z"/>
</mask>
<path d="M1104 1152V1153H1105V1152H1104ZM1104 1056H1103V1152H1104H1105V1056H1104ZM1104 1152V1151H1008V1152V1153H1104V1152Z" fill="#D0D5DD" mask="url(#path-377-inside-188_136_92763)"/>
<mask id="path-379-inside-189_136_92763" fill="white">
<path d="M1104 1056H1200V1152H1104V1056Z"/>
</mask>
<path d="M1104 1056H1200V1152H1104V1056Z" fill="#F2F4F7"/>
<path d="M1200 1152V1153H1201V1152H1200ZM1200 1056H1199V1152H1200H1201V1056H1200ZM1200 1152V1151H1104V1152V1153H1200V1152Z" fill="#D0D5DD" mask="url(#path-379-inside-189_136_92763)"/>
<mask id="path-381-inside-190_136_92763" fill="white">
<path d="M1200 1056H1296V1152H1200V1056Z"/>
</mask>
<path d="M1296 1152V1153H1297V1152H1296ZM1296 1056H1295V1152H1296H1297V1056H1296ZM1296 1152V1151H1200V1152V1153H1296V1152Z" fill="#D0D5DD" mask="url(#path-381-inside-190_136_92763)"/>
<mask id="path-383-inside-191_136_92763" fill="white">
<path d="M1296 1056H1392V1152H1296V1056Z"/>
</mask>
<path d="M1392 1152V1153H1393V1152H1392ZM1392 1056H1391V1152H1392H1393V1056H1392ZM1392 1152V1151H1296V1152V1153H1392V1152Z" fill="#D0D5DD" mask="url(#path-383-inside-191_136_92763)"/>
<mask id="path-385-inside-192_136_92763" fill="white">
<path d="M1392 1056H1488V1152H1392V1056Z"/>
</mask>
<path d="M1488 1152V1153H1489V1152H1488ZM1488 1056H1487V1152H1488H1489V1056H1488ZM1488 1152V1151H1392V1152V1153H1488V1152Z" fill="#D0D5DD" mask="url(#path-385-inside-192_136_92763)"/>
<mask id="path-387-inside-193_136_92763" fill="white">
<path d="M-48 1152H48V1248H-48V1152Z"/>
</mask>
<path d="M48 1248V1249H49V1248H48ZM48 1152H47V1248H48H49V1152H48ZM48 1248V1247H-48V1248V1249H48V1248Z" fill="#D0D5DD" mask="url(#path-387-inside-193_136_92763)"/>
<mask id="path-389-inside-194_136_92763" fill="white">
<path d="M48 1152H144V1248H48V1152Z"/>
</mask>
<path d="M144 1248V1249H145V1248H144ZM144 1152H143V1248H144H145V1152H144ZM144 1248V1247H48V1248V1249H144V1248Z" fill="#D0D5DD" mask="url(#path-389-inside-194_136_92763)"/>
<mask id="path-391-inside-195_136_92763" fill="white">
<path d="M144 1152H240V1248H144V1152Z"/>
</mask>
<path d="M240 1248V1249H241V1248H240ZM240 1152H239V1248H240H241V1152H240ZM240 1248V1247H144V1248V1249H240V1248Z" fill="#D0D5DD" mask="url(#path-391-inside-195_136_92763)"/>
<mask id="path-393-inside-196_136_92763" fill="white">
<path d="M240 1152H336V1248H240V1152Z"/>
</mask>
<path d="M336 1248V1249H337V1248H336ZM336 1152H335V1248H336H337V1152H336ZM336 1248V1247H240V1248V1249H336V1248Z" fill="#D0D5DD" mask="url(#path-393-inside-196_136_92763)"/>
<mask id="path-395-inside-197_136_92763" fill="white">
<path d="M336 1152H432V1248H336V1152Z"/>
</mask>
<path d="M432 1248V1249H433V1248H432ZM432 1152H431V1248H432H433V1152H432ZM432 1248V1247H336V1248V1249H432V1248Z" fill="#D0D5DD" mask="url(#path-395-inside-197_136_92763)"/>
<mask id="path-397-inside-198_136_92763" fill="white">
<path d="M432 1152H528V1248H432V1152Z"/>
</mask>
<path d="M528 1248V1249H529V1248H528ZM528 1152H527V1248H528H529V1152H528ZM528 1248V1247H432V1248V1249H528V1248Z" fill="#D0D5DD" mask="url(#path-397-inside-198_136_92763)"/>
<mask id="path-399-inside-199_136_92763" fill="white">
<path d="M528 1152H624V1248H528V1152Z"/>
</mask>
<path d="M528 1152H624V1248H528V1152Z" fill="#F2F4F7"/>
<path d="M624 1248V1249H625V1248H624ZM624 1152H623V1248H624H625V1152H624ZM624 1248V1247H528V1248V1249H624V1248Z" fill="#D0D5DD" mask="url(#path-399-inside-199_136_92763)"/>
<mask id="path-401-inside-200_136_92763" fill="white">
<path d="M624 1152H720V1248H624V1152Z"/>
</mask>
<path d="M720 1248V1249H721V1248H720ZM720 1152H719V1248H720H721V1152H720ZM720 1248V1247H624V1248V1249H720V1248Z" fill="#D0D5DD" mask="url(#path-401-inside-200_136_92763)"/>
<mask id="path-403-inside-201_136_92763" fill="white">
<path d="M720 1152H816V1248H720V1152Z"/>
</mask>
<path d="M816 1248V1249H817V1248H816ZM816 1152H815V1248H816H817V1152H816ZM816 1248V1247H720V1248V1249H816V1248Z" fill="#D0D5DD" mask="url(#path-403-inside-201_136_92763)"/>
<mask id="path-405-inside-202_136_92763" fill="white">
<path d="M816 1152H912V1248H816V1152Z"/>
</mask>
<path d="M912 1248V1249H913V1248H912ZM912 1152H911V1248H912H913V1152H912ZM912 1248V1247H816V1248V1249H912V1248Z" fill="#D0D5DD" mask="url(#path-405-inside-202_136_92763)"/>
<mask id="path-407-inside-203_136_92763" fill="white">
<path d="M912 1152H1008V1248H912V1152Z"/>
</mask>
<path d="M1008 1248V1249H1009V1248H1008ZM1008 1152H1007V1248H1008H1009V1152H1008ZM1008 1248V1247H912V1248V1249H1008V1248Z" fill="#D0D5DD" mask="url(#path-407-inside-203_136_92763)"/>
<mask id="path-409-inside-204_136_92763" fill="white">
<path d="M1008 1152H1104V1248H1008V1152Z"/>
</mask>
<path d="M1104 1248V1249H1105V1248H1104ZM1104 1152H1103V1248H1104H1105V1152H1104ZM1104 1248V1247H1008V1248V1249H1104V1248Z" fill="#D0D5DD" mask="url(#path-409-inside-204_136_92763)"/>
<mask id="path-411-inside-205_136_92763" fill="white">
<path d="M1104 1152H1200V1248H1104V1152Z"/>
</mask>
<path d="M1200 1248V1249H1201V1248H1200ZM1200 1152H1199V1248H1200H1201V1152H1200ZM1200 1248V1247H1104V1248V1249H1200V1248Z" fill="#D0D5DD" mask="url(#path-411-inside-205_136_92763)"/>
<mask id="path-413-inside-206_136_92763" fill="white">
<path d="M1200 1152H1296V1248H1200V1152Z"/>
</mask>
<path d="M1296 1248V1249H1297V1248H1296ZM1296 1152H1295V1248H1296H1297V1152H1296ZM1296 1248V1247H1200V1248V1249H1296V1248Z" fill="#D0D5DD" mask="url(#path-413-inside-206_136_92763)"/>
<mask id="path-415-inside-207_136_92763" fill="white">
<path d="M1296 1152H1392V1248H1296V1152Z"/>
</mask>
<path d="M1392 1248V1249H1393V1248H1392ZM1392 1152H1391V1248H1392H1393V1152H1392ZM1392 1248V1247H1296V1248V1249H1392V1248Z" fill="#D0D5DD" mask="url(#path-415-inside-207_136_92763)"/>
<mask id="path-417-inside-208_136_92763" fill="white">
<path d="M1392 1152H1488V1248H1392V1152Z"/>
</mask>
<path d="M1488 1248V1249H1489V1248H1488ZM1488 1152H1487V1248H1488H1489V1152H1488ZM1488 1248V1247H1392V1248V1249H1488V1248Z" fill="#D0D5DD" mask="url(#path-417-inside-208_136_92763)"/>
<mask id="path-419-inside-209_136_92763" fill="white">
<path d="M-48 1248H48V1344H-48V1248Z"/>
</mask>
<path d="M48 1344V1345H49V1344H48ZM48 1248H47V1344H48H49V1248H48ZM48 1344V1343H-48V1344V1345H48V1344Z" fill="#D0D5DD" mask="url(#path-419-inside-209_136_92763)"/>
<mask id="path-421-inside-210_136_92763" fill="white">
<path d="M48 1248H144V1344H48V1248Z"/>
</mask>
<path d="M144 1344V1345H145V1344H144ZM144 1248H143V1344H144H145V1248H144ZM144 1344V1343H48V1344V1345H144V1344Z" fill="#D0D5DD" mask="url(#path-421-inside-210_136_92763)"/>
<mask id="path-423-inside-211_136_92763" fill="white">
<path d="M144 1248H240V1344H144V1248Z"/>
</mask>
<path d="M240 1344V1345H241V1344H240ZM240 1248H239V1344H240H241V1248H240ZM240 1344V1343H144V1344V1345H240V1344Z" fill="#D0D5DD" mask="url(#path-423-inside-211_136_92763)"/>
<mask id="path-425-inside-212_136_92763" fill="white">
<path d="M240 1248H336V1344H240V1248Z"/>
</mask>
<path d="M240 1248H336V1344H240V1248Z" fill="#F2F4F7"/>
<path d="M336 1344V1345H337V1344H336ZM336 1248H335V1344H336H337V1248H336ZM336 1344V1343H240V1344V1345H336V1344Z" fill="#D0D5DD" mask="url(#path-425-inside-212_136_92763)"/>
<mask id="path-427-inside-213_136_92763" fill="white">
<path d="M336 1248H432V1344H336V1248Z"/>
</mask>
<path d="M432 1344V1345H433V1344H432ZM432 1248H431V1344H432H433V1248H432ZM432 1344V1343H336V1344V1345H432V1344Z" fill="#D0D5DD" mask="url(#path-427-inside-213_136_92763)"/>
<mask id="path-429-inside-214_136_92763" fill="white">
<path d="M432 1248H528V1344H432V1248Z"/>
</mask>
<path d="M528 1344V1345H529V1344H528ZM528 1248H527V1344H528H529V1248H528ZM528 1344V1343H432V1344V1345H528V1344Z" fill="#D0D5DD" mask="url(#path-429-inside-214_136_92763)"/>
<mask id="path-431-inside-215_136_92763" fill="white">
<path d="M528 1248H624V1344H528V1248Z"/>
</mask>
<path d="M624 1344V1345H625V1344H624ZM624 1248H623V1344H624H625V1248H624ZM624 1344V1343H528V1344V1345H624V1344Z" fill="#D0D5DD" mask="url(#path-431-inside-215_136_92763)"/>
<mask id="path-433-inside-216_136_92763" fill="white">
<path d="M624 1248H720V1344H624V1248Z"/>
</mask>
<path d="M720 1344V1345H721V1344H720ZM720 1248H719V1344H720H721V1248H720ZM720 1344V1343H624V1344V1345H720V1344Z" fill="#D0D5DD" mask="url(#path-433-inside-216_136_92763)"/>
<mask id="path-435-inside-217_136_92763" fill="white">
<path d="M720 1248H816V1344H720V1248Z"/>
</mask>
<path d="M816 1344V1345H817V1344H816ZM816 1248H815V1344H816H817V1248H816ZM816 1344V1343H720V1344V1345H816V1344Z" fill="#D0D5DD" mask="url(#path-435-inside-217_136_92763)"/>
<mask id="path-437-inside-218_136_92763" fill="white">
<path d="M816 1248H912V1344H816V1248Z"/>
</mask>
<path d="M816 1248H912V1344H816V1248Z" fill="#F2F4F7"/>
<path d="M912 1344V1345H913V1344H912ZM912 1248H911V1344H912H913V1248H912ZM912 1344V1343H816V1344V1345H912V1344Z" fill="#D0D5DD" mask="url(#path-437-inside-218_136_92763)"/>
<mask id="path-439-inside-219_136_92763" fill="white">
<path d="M912 1248H1008V1344H912V1248Z"/>
</mask>
<path d="M1008 1344V1345H1009V1344H1008ZM1008 1248H1007V1344H1008H1009V1248H1008ZM1008 1344V1343H912V1344V1345H1008V1344Z" fill="#D0D5DD" mask="url(#path-439-inside-219_136_92763)"/>
<mask id="path-441-inside-220_136_92763" fill="white">
<path d="M1008 1248H1104V1344H1008V1248Z"/>
</mask>
<path d="M1104 1344V1345H1105V1344H1104ZM1104 1248H1103V1344H1104H1105V1248H1104ZM1104 1344V1343H1008V1344V1345H1104V1344Z" fill="#D0D5DD" mask="url(#path-441-inside-220_136_92763)"/>
<mask id="path-443-inside-221_136_92763" fill="white">
<path d="M1104 1248H1200V1344H1104V1248Z"/>
</mask>
<path d="M1200 1344V1345H1201V1344H1200ZM1200 1248H1199V1344H1200H1201V1248H1200ZM1200 1344V1343H1104V1344V1345H1200V1344Z" fill="#D0D5DD" mask="url(#path-443-inside-221_136_92763)"/>
<mask id="path-445-inside-222_136_92763" fill="white">
<path d="M1200 1248H1296V1344H1200V1248Z"/>
</mask>
<path d="M1296 1344V1345H1297V1344H1296ZM1296 1248H1295V1344H1296H1297V1248H1296ZM1296 1344V1343H1200V1344V1345H1296V1344Z" fill="#D0D5DD" mask="url(#path-445-inside-222_136_92763)"/>
<mask id="path-447-inside-223_136_92763" fill="white">
<path d="M1296 1248H1392V1344H1296V1248Z"/>
</mask>
<path d="M1392 1344V1345H1393V1344H1392ZM1392 1248H1391V1344H1392H1393V1248H1392ZM1392 1344V1343H1296V1344V1345H1392V1344Z" fill="#D0D5DD" mask="url(#path-447-inside-223_136_92763)"/>
<mask id="path-449-inside-224_136_92763" fill="white">
<path d="M1392 1248H1488V1344H1392V1248Z"/>
</mask>
<path d="M1488 1344V1345H1489V1344H1488ZM1488 1248H1487V1344H1488H1489V1248H1488ZM1488 1344V1343H1392V1344V1345H1488V1344Z" fill="#D0D5DD" mask="url(#path-449-inside-224_136_92763)"/>
<mask id="path-451-inside-225_136_92763" fill="white">
<path d="M-48 1344H48V1440H-48V1344Z"/>
</mask>
<path d="M48 1440V1441H49V1440H48ZM48 1344H47V1440H48H49V1344H48ZM48 1440V1439H-48V1440V1441H48V1440Z" fill="#D0D5DD" mask="url(#path-451-inside-225_136_92763)"/>
<mask id="path-453-inside-226_136_92763" fill="white">
<path d="M48 1344H144V1440H48V1344Z"/>
</mask>
<path d="M48 1344H144V1440H48V1344Z" fill="#F2F4F7"/>
<path d="M144 1440V1441H145V1440H144ZM144 1344H143V1440H144H145V1344H144ZM144 1440V1439H48V1440V1441H144V1440Z" fill="#D0D5DD" mask="url(#path-453-inside-226_136_92763)"/>
<mask id="path-455-inside-227_136_92763" fill="white">
<path d="M144 1344H240V1440H144V1344Z"/>
</mask>
<path d="M240 1440V1441H241V1440H240ZM240 1344H239V1440H240H241V1344H240ZM240 1440V1439H144V1440V1441H240V1440Z" fill="#D0D5DD" mask="url(#path-455-inside-227_136_92763)"/>
<mask id="path-457-inside-228_136_92763" fill="white">
<path d="M240 1344H336V1440H240V1344Z"/>
</mask>
<path d="M336 1440V1441H337V1440H336ZM336 1344H335V1440H336H337V1344H336ZM336 1440V1439H240V1440V1441H336V1440Z" fill="#D0D5DD" mask="url(#path-457-inside-228_136_92763)"/>
<mask id="path-459-inside-229_136_92763" fill="white">
<path d="M336 1344H432V1440H336V1344Z"/>
</mask>
<path d="M432 1440V1441H433V1440H432ZM432 1344H431V1440H432H433V1344H432ZM432 1440V1439H336V1440V1441H432V1440Z" fill="#D0D5DD" mask="url(#path-459-inside-229_136_92763)"/>
<mask id="path-461-inside-230_136_92763" fill="white">
<path d="M432 1344H528V1440H432V1344Z"/>
</mask>
<path d="M528 1440V1441H529V1440H528ZM528 1344H527V1440H528H529V1344H528ZM528 1440V1439H432V1440V1441H528V1440Z" fill="#D0D5DD" mask="url(#path-461-inside-230_136_92763)"/>
<mask id="path-463-inside-231_136_92763" fill="white">
<path d="M528 1344H624V1440H528V1344Z"/>
</mask>
<path d="M624 1440V1441H625V1440H624ZM624 1344H623V1440H624H625V1344H624ZM624 1440V1439H528V1440V1441H624V1440Z" fill="#D0D5DD" mask="url(#path-463-inside-231_136_92763)"/>
<mask id="path-465-inside-232_136_92763" fill="white">
<path d="M624 1344H720V1440H624V1344Z"/>
</mask>
<path d="M720 1440V1441H721V1440H720ZM720 1344H719V1440H720H721V1344H720ZM720 1440V1439H624V1440V1441H720V1440Z" fill="#D0D5DD" mask="url(#path-465-inside-232_136_92763)"/>
<mask id="path-467-inside-233_136_92763" fill="white">
<path d="M720 1344H816V1440H720V1344Z"/>
</mask>
<path d="M816 1440V1441H817V1440H816ZM816 1344H815V1440H816H817V1344H816ZM816 1440V1439H720V1440V1441H816V1440Z" fill="#D0D5DD" mask="url(#path-467-inside-233_136_92763)"/>
<mask id="path-469-inside-234_136_92763" fill="white">
<path d="M816 1344H912V1440H816V1344Z"/>
</mask>
<path d="M912 1440V1441H913V1440H912ZM912 1344H911V1440H912H913V1344H912ZM912 1440V1439H816V1440V1441H912V1440Z" fill="#D0D5DD" mask="url(#path-469-inside-234_136_92763)"/>
<mask id="path-471-inside-235_136_92763" fill="white">
<path d="M912 1344H1008V1440H912V1344Z"/>
</mask>
<path d="M1008 1440V1441H1009V1440H1008ZM1008 1344H1007V1440H1008H1009V1344H1008ZM1008 1440V1439H912V1440V1441H1008V1440Z" fill="#D0D5DD" mask="url(#path-471-inside-235_136_92763)"/>
<mask id="path-473-inside-236_136_92763" fill="white">
<path d="M1008 1344H1104V1440H1008V1344Z"/>
</mask>
<path d="M1104 1440V1441H1105V1440H1104ZM1104 1344H1103V1440H1104H1105V1344H1104ZM1104 1440V1439H1008V1440V1441H1104V1440Z" fill="#D0D5DD" mask="url(#path-473-inside-236_136_92763)"/>
<mask id="path-475-inside-237_136_92763" fill="white">
<path d="M1104 1344H1200V1440H1104V1344Z"/>
</mask>
<path d="M1200 1440V1441H1201V1440H1200ZM1200 1344H1199V1440H1200H1201V1344H1200ZM1200 1440V1439H1104V1440V1441H1200V1440Z" fill="#D0D5DD" mask="url(#path-475-inside-237_136_92763)"/>
<mask id="path-477-inside-238_136_92763" fill="white">
<path d="M1200 1344H1296V1440H1200V1344Z"/>
</mask>
<path d="M1296 1440V1441H1297V1440H1296ZM1296 1344H1295V1440H1296H1297V1344H1296ZM1296 1440V1439H1200V1440V1441H1296V1440Z" fill="#D0D5DD" mask="url(#path-477-inside-238_136_92763)"/>
<mask id="path-479-inside-239_136_92763" fill="white">
<path d="M1296 1344H1392V1440H1296V1344Z"/>
</mask>
<path d="M1296 1344H1392V1440H1296V1344Z" fill="#F2F4F7"/>
<path d="M1392 1440V1441H1393V1440H1392ZM1392 1344H1391V1440H1392H1393V1344H1392ZM1392 1440V1439H1296V1440V1441H1392V1440Z" fill="#D0D5DD" mask="url(#path-479-inside-239_136_92763)"/>
<mask id="path-481-inside-240_136_92763" fill="white">
<path d="M1392 1344H1488V1440H1392V1344Z"/>
</mask>
<path d="M1488 1440V1441H1489V1440H1488ZM1488 1344H1487V1440H1488H1489V1344H1488ZM1488 1440V1439H1392V1440V1441H1488V1440Z" fill="#D0D5DD" mask="url(#path-481-inside-240_136_92763)"/>
</g>
<rect x="-239.5" y="0.5" width="1919" height="1439" stroke="#D0D5DD"/>
</g>
<defs>
<radialGradient id="paint0_radial_136_92763" cx="0" cy="0" r="1" gradientUnits="userSpaceOnUse" gradientTransform="translate(720 -0.000171661) rotate(90) scale(1440 751.588)">
<stop/>
<stop offset="0.953125" stop-opacity="0"/>
</radialGradient>
<clipPath id="clip0_136_92763">
<rect x="-240" width="1920" height="1440" fill="white"/>
</clipPath>
</defs>
</svg>
