<svg width="24" height="24" viewBox="0 0 24 24" fill="none" xmlns="http://www.w3.org/2000/svg">
<path d="M8.25 4.375V6.25H15.75V4.375C15.75 4.0625 15.4375 3.75 15.125 3.75H8.875C8.52344 3.75 8.25 4.0625 8.25 4.375ZM7 6.25V4.375C7 3.35938 7.82031 2.5 8.875 2.5H15.125C16.1406 2.5 17 3.35938 17 4.375V6.25H19.5C20.8672 6.25 22 7.38281 22 8.75V18.75C22 20.1562 20.8672 21.25 19.5 21.25H4.5C3.09375 21.25 2 20.1562 2 18.75V8.75C2 7.38281 3.09375 6.25 4.5 6.25H7ZM16.375 7.5H7.625H4.5C3.79688 7.5 3.25 8.08594 3.25 8.75V12.5H8.875H10.125H13.875H15.125H20.75V8.75C20.75 8.08594 20.1641 7.5 19.5 7.5H16.375ZM20.75 13.75H15.125V15.625C15.125 16.3281 14.5391 16.875 13.875 16.875H10.125C9.42188 16.875 8.875 16.3281 8.875 15.625V13.75H3.25V18.75C3.25 19.4531 3.79688 20 4.5 20H19.5C20.1641 20 20.75 19.4531 20.75 18.75V13.75ZM10.125 13.75V15.625H13.875V13.75H10.125Z" fill="#475467"/>
</svg>
