<svg width="166" height="40" viewBox="0 0 166 40" fill="none" xmlns="http://www.w3.org/2000/svg">
<path opacity="0.4" d="M39.0823 17.6978C37.35 19.4302 34.5413 19.4302 32.809 17.6978C31.0767 15.9655 31.0767 13.1569 32.809 11.4245C34.5413 9.69222 37.35 9.69222 39.0823 11.4245C40.8146 13.1569 40.8146 15.9655 39.0823 17.6978Z" fill="#155EEF"/>
<path opacity="0.6" d="M39.0782 17.6963C37.3459 19.4286 34.5372 19.4286 32.8049 17.6963L26.6096 11.5011C24.8773 9.76876 22.0687 9.76876 20.3364 11.5011C18.604 13.2334 18.604 16.0421 20.3364 17.7744L26.5316 23.9696C28.2639 25.7019 31.0726 25.7019 32.8049 23.9696L39.0782 17.6963Z" fill="#155EEF"/>
<path d="M32.8053 23.971C31.0729 25.7033 28.2643 25.7033 26.532 23.971L14.5081 11.9472C12.1984 9.6374 8.45352 9.6374 6.14376 11.9472L0.916016 17.1749C2.64834 15.4426 5.45699 15.4426 7.18931 17.1749L20.2587 30.2443C21.991 31.9766 24.7996 31.9766 26.532 30.2443L32.8053 23.971Z" fill="#155EEF"/>
<path d="M61.217 27.4999L58.202 16.2049L55.187 27.4999H51.722L47.582 11.3449H50.912L53.522 22.3024L56.492 11.3449H59.9795L62.8595 22.3474L65.492 11.3449H68.8445L64.682 27.4999H61.217Z" fill="#0C111D"/>
<path d="M73.2259 12.6949C73.2259 13.7524 72.3709 14.5399 71.1334 14.5399C69.9184 14.5399 69.0634 13.7524 69.0634 12.6949C69.0634 11.5924 69.9184 10.8049 71.1334 10.8049C72.3709 10.8049 73.2259 11.5924 73.2259 12.6949ZM72.7309 27.4999H69.6034V15.4849H72.7309V27.4999Z" fill="#0C111D"/>
<path d="M77.764 27.4999H74.614V11.3449H77.764V27.4999Z" fill="#0C111D"/>
<path d="M78.8811 21.4924C78.8811 17.9374 80.9736 15.2599 84.2136 15.2599C85.6536 15.2599 86.8686 15.8899 87.7686 17.0374V11.3449H90.8736V27.4999H88.0161V25.7674C87.0711 27.0274 85.7661 27.7249 84.2136 27.7249C80.9736 27.7249 78.8811 25.0024 78.8811 21.4924ZM82.0986 21.4924C82.0986 23.7424 83.3811 24.9349 84.9111 24.9349C86.4636 24.9349 87.7461 23.7199 87.7461 21.4474C87.7461 19.1749 86.4411 18.0274 84.9111 18.0274C83.3811 18.0274 82.0986 19.1974 82.0986 21.4924Z" fill="#0C111D"/>
<path d="M97.8277 27.7249C94.3627 27.7249 91.9777 25.1599 91.9777 21.4924C91.9777 17.8924 94.4527 15.2599 97.8277 15.2599C100.955 15.2599 103.273 17.3749 103.655 20.6149H100.37C100.213 19.0174 99.2452 18.0274 97.8277 18.0274C96.2077 18.0274 95.1727 19.3549 95.1727 21.4924C95.1727 23.6524 96.1852 24.9574 97.8277 24.9574C99.2677 24.9574 100.19 24.0124 100.37 22.3699H103.655C103.295 25.6774 101.045 27.7249 97.8277 27.7249Z" fill="#0C111D"/>
<path d="M107.891 21.6724V27.4999H104.763V15.4849H107.643V17.8024C108.521 16.2724 110.388 15.3499 112.323 15.3499V18.5899C109.668 18.3874 107.891 19.0174 107.891 21.6724Z" fill="#0C111D"/>
<path d="M120.203 27.4999V26.0149C119.415 27.1399 118.223 27.7249 116.58 27.7249C114.083 27.7249 112.418 26.2624 112.418 24.0124C112.418 21.6724 114.308 20.4124 117.818 20.4124C118.493 20.4124 119.078 20.4574 119.82 20.5474V19.8274C119.82 18.4774 119.055 17.6899 117.75 17.6899C116.4 17.6899 115.59 18.4774 115.478 19.8274H112.665C112.845 17.0599 114.848 15.2599 117.75 15.2599C120.9 15.2599 122.745 16.9924 122.745 19.9399V27.4999H120.203ZM115.365 23.9224C115.365 24.9349 116.085 25.5649 117.255 25.5649C118.853 25.5649 119.82 24.6874 119.82 23.2924V22.4374C119.078 22.3249 118.56 22.2799 118.02 22.2799C116.243 22.2799 115.365 22.8424 115.365 23.9224Z" fill="#0C111D"/>
<path d="M128.617 27.4999H125.512V18.1624H123.082V15.4849H125.512V14.8324C125.512 12.4474 126.795 11.0974 129.292 11.0974C130.057 11.0974 130.71 11.2324 131.227 11.4574V13.9324C130.89 13.7974 130.44 13.7299 130.035 13.7299C129.18 13.7299 128.617 14.0674 128.617 14.8999V15.4849H131.745V18.1624H128.617V27.4999Z" fill="#0C111D"/>
<path d="M140.559 24.4624V27.1849C139.794 27.5674 139.074 27.7249 138.151 27.7249C135.676 27.7249 134.124 26.3074 134.124 23.6074V18.1624H131.694V15.4849H134.124V11.9299H137.229V15.4849H140.671V18.1624H137.229V22.8874C137.229 24.2824 137.859 24.8449 138.984 24.8449C139.569 24.8449 140.109 24.7099 140.559 24.4624Z" fill="#0C111D"/>
<path d="M146.637 27.7024C143.037 27.7024 140.63 25.2049 140.63 21.4474C140.63 17.8699 143.127 15.2599 146.592 15.2599C150.395 15.2599 152.915 18.3424 152.352 22.2574H143.825C144.027 24.2149 144.972 25.2949 146.57 25.2949C147.942 25.2949 148.865 24.6199 149.225 23.4274H152.33C151.655 26.1499 149.562 27.7024 146.637 27.7024ZM146.525 17.5549C145.062 17.5549 144.14 18.4999 143.87 20.2774H149.045C148.955 18.6124 148.01 17.5549 146.525 17.5549Z" fill="#0C111D"/>
<path d="M152.54 21.4924C152.54 17.9374 154.632 15.2599 157.872 15.2599C159.312 15.2599 160.527 15.8899 161.427 17.0374V11.3449H164.532V27.4999H161.675V25.7674C160.73 27.0274 159.425 27.7249 157.872 27.7249C154.632 27.7249 152.54 25.0024 152.54 21.4924ZM155.757 21.4924C155.757 23.7424 157.04 24.9349 158.57 24.9349C160.122 24.9349 161.405 23.7199 161.405 21.4474C161.405 19.1749 160.1 18.0274 158.57 18.0274C157.04 18.0274 155.757 19.1974 155.757 21.4924Z" fill="#0C111D"/>
</svg>
