<svg width="20" height="21" viewBox="0 0 20 21" fill="none" xmlns="http://www.w3.org/2000/svg">
<path d="M10 1.75C9.10156 1.75 8.28125 2.25781 7.8125 3C7.38281 3.78125 7.38281 4.75781 7.8125 5.5C8.28125 6.28125 9.10156 6.75 10 6.75C10.8594 6.75 11.6797 6.28125 12.1484 5.5C12.5781 4.75781 12.5781 3.78125 12.1484 3C11.6797 2.25781 10.8594 1.75 10 1.75ZM10 8C8.63281 8 7.42188 7.29688 6.71875 6.125C6.05469 4.99219 6.05469 3.54688 6.71875 2.375C7.42188 1.24219 8.63281 0.5 10 0.5C11.3281 0.5 12.5391 1.24219 13.2422 2.375C13.9062 3.54688 13.9062 4.99219 13.2422 6.125C12.5391 7.29688 11.3281 8 10 8ZM10 9.875C10 9.875 12.1875 8.23438 18.7109 8.03906C19.4141 8 19.9609 8.58594 19.9609 9.25V17.375C19.9609 18.0781 19.4141 18.625 18.7109 18.6641C14.2188 18.8594 11.4062 19.9922 10.5859 20.3828C10.3906 20.4609 10.1953 20.5 9.96094 20.5C9.76562 20.5 9.57031 20.4609 9.375 20.3828C8.51562 19.9922 5.70312 18.8594 1.25 18.6641C0.546875 18.625 0 18.0781 0 17.375V9.25C0 8.58594 0.546875 8 1.25 8.03906C7.77344 8.23438 10 9.875 10 9.875ZM9.25781 10.8906H9.21875C9.17969 10.8516 9.10156 10.8125 8.94531 10.7344C8.71094 10.6172 8.28125 10.4219 7.65625 10.2266C6.44531 9.83594 4.375 9.36719 1.25 9.28906V17.375C1.25 17.4141 1.25 17.4141 1.25 17.4141C1.25 17.4141 1.25 17.4141 1.28906 17.4141C5.27344 17.5703 8.04688 18.4688 9.375 19.0156V10.9688L9.25781 10.8906ZM10.625 10.9688V19.0156C11.9531 18.4688 14.6875 17.5703 18.6719 17.4141C18.7109 17.4141 18.7109 17.4141 18.75 17.4141V17.375V9.28906C15.5859 9.36719 13.5547 9.83594 12.3047 10.2266C11.6797 10.4219 11.25 10.6172 11.0156 10.7344C10.8984 10.8125 10.7812 10.8516 10.7422 10.8906C10.7422 10.8906 10.7422 10.8906 10.7031 10.8906L10.625 10.9688Z" fill="#475467"/>
</svg>
