<svg width="24" height="24" viewBox="0 0 24 24" fill="none" xmlns="http://www.w3.org/2000/svg">
<path d="M21.8047 12.9688L16.8047 17.9688C16.5703 18.2031 16.1406 18.2031 15.9062 17.9688C15.6719 17.7344 15.6719 17.3047 15.9062 17.0703L19.8516 13.125H8.875C8.52344 13.125 8.25 12.8516 8.25 12.5C8.25 12.1875 8.52344 11.875 8.875 11.875H19.8516L15.9062 7.96875C15.6719 7.73438 15.6719 7.30469 15.9062 7.07031C16.1406 6.83594 16.5703 6.83594 16.8047 7.07031L21.8047 12.0703C22.0391 12.3047 22.0391 12.7344 21.8047 12.9688ZM8.875 5H5.125C4.07031 5 3.25 5.85938 3.25 6.875V18.125C3.25 19.1797 4.07031 20 5.125 20H8.875C9.1875 20 9.5 20.3125 9.5 20.625C9.5 20.9766 9.1875 21.25 8.875 21.25H5.125C3.36719 21.25 2 19.8828 2 18.125V6.875C2 5.15625 3.36719 3.75 5.125 3.75H8.875C9.1875 3.75 9.5 4.0625 9.5 4.375C9.5 4.72656 9.1875 5 8.875 5Z" fill="#475467"/>
</svg>
