<svg width="20" height="19" viewBox="0 0 20 19" fill="none" xmlns="http://www.w3.org/2000/svg">
<path d="M1.25 3.25V15.75C1.25 16.4531 1.79688 17 2.5 17H17.5C18.1641 17 18.75 16.4531 18.75 15.75V5.75C18.75 5.08594 18.1641 4.5 17.5 4.5H11.3672C10.7031 4.5 10.0781 4.26562 9.60938 3.79688L8.20312 2.39062C7.96875 2.15625 7.65625 2 7.34375 2H2.5C1.79688 2 1.25 2.58594 1.25 3.25ZM2.5 0.75H7.34375C8.00781 0.75 8.63281 1.02344 9.10156 1.49219L10.5078 2.89844C10.7422 3.13281 11.0547 3.25 11.3672 3.25H17.5C18.8672 3.25 20 4.38281 20 5.75V15.75C20 17.1562 18.8672 18.25 17.5 18.25H2.5C1.09375 18.25 0 17.1562 0 15.75V3.25C0 1.88281 1.09375 0.75 2.5 0.75ZM10.625 9.14844V13.875C10.625 14.2266 10.3125 14.5 10 14.5C9.64844 14.5 9.375 14.2266 9.375 13.875V9.14844L7.30469 11.2188C7.07031 11.4531 6.64062 11.4531 6.40625 11.2188C6.17188 10.9844 6.17188 10.5547 6.40625 10.3203L9.53125 7.19531C9.76562 6.96094 10.1953 6.96094 10.4297 7.19531L13.5547 10.3203C13.7891 10.5547 13.7891 10.9844 13.5547 11.2188C13.3203 11.4531 12.8906 11.4531 12.6562 11.2188L10.625 9.14844Z" fill="#475467"/>
</svg>
