<svg width="24" height="21" viewBox="0 0 24 21" fill="none" xmlns="http://www.w3.org/2000/svg">
<path d="M11.5703 0.65625C11.8047 0.460938 12.1562 0.460938 12.3906 0.65625L23.0156 10.0312C23.2891 10.2656 23.2891 10.6562 23.0938 10.9297C22.8594 11.2031 22.4688 11.2031 22.1953 10.9688L20.75 9.67969V17.375C20.75 19.1328 19.3438 20.5 17.625 20.5H6.375C4.61719 20.5 3.25 19.1328 3.25 17.375V9.67969L1.76562 10.9688C1.53125 11.2031 1.10156 11.2031 0.90625 10.9297C0.671875 10.6562 0.671875 10.2656 0.945312 10.0312L11.5703 0.65625ZM4.5 8.58594V17.375C4.5 18.4297 5.32031 19.25 6.375 19.25H17.625C18.6406 19.25 19.5 18.4297 19.5 17.375V8.58594L12 1.98438L4.5 8.58594ZM12 10.5C12.6641 10.5 13.25 9.95312 13.25 9.25C13.25 8.58594 12.6641 8 12 8C11.2969 8 10.75 8.58594 10.75 9.25C10.75 9.95312 11.2969 10.5 12 10.5ZM12 6.75C12.8594 6.75 13.6797 7.25781 14.1484 8C14.5781 8.78125 14.5781 9.75781 14.1484 10.5C13.6797 11.2812 12.8594 11.75 12 11.75C11.1016 11.75 10.2812 11.2812 9.8125 10.5C9.38281 9.75781 9.38281 8.78125 9.8125 8C10.2812 7.25781 11.1016 6.75 12 6.75ZM8.875 15.8125V16.125C8.875 16.4766 8.5625 16.75 8.25 16.75C7.89844 16.75 7.625 16.4766 7.625 16.125V15.8125C7.625 14.2891 8.875 13 10.4375 13H13.5625C15.0859 13 16.375 14.2891 16.375 15.8125V16.125C16.375 16.4766 16.0625 16.75 15.75 16.75C15.3984 16.75 15.125 16.4766 15.125 16.125V15.8125C15.125 14.9531 14.4219 14.25 13.5625 14.25H10.4375C9.53906 14.25 8.875 14.9531 8.875 15.8125Z" fill="#475467"/>
</svg>
