<svg width="24" height="24" viewBox="0 0 24 24" fill="none" xmlns="http://www.w3.org/2000/svg">
<path d="M5.75 5C5.04688 5 4.5 5.58594 4.5 6.25V18.75C4.5 19.4531 5.04688 20 5.75 20H18.25C18.9141 20 19.5 19.4531 19.5 18.75V6.25C19.5 5.58594 18.9141 5 18.25 5H5.75ZM3.25 6.25C3.25 4.88281 4.34375 3.75 5.75 3.75H18.25C19.6172 3.75 20.75 4.88281 20.75 6.25V18.75C20.75 20.1562 19.6172 21.25 18.25 21.25H5.75C4.34375 21.25 3.25 20.1562 3.25 18.75V6.25ZM11.0625 8.75C11.0625 8.24219 11.4531 7.8125 12 7.8125C12.5078 7.8125 12.9375 8.24219 12.9375 8.75C12.9375 9.29688 12.5078 9.6875 12 9.6875C11.4531 9.6875 11.0625 9.29688 11.0625 8.75ZM10.4375 11.25H12C12.3125 11.25 12.625 11.5625 12.625 11.875V16.25H13.875C14.1875 16.25 14.5 16.5625 14.5 16.875C14.5 17.2266 14.1875 17.5 13.875 17.5H10.125C9.77344 17.5 9.5 17.2266 9.5 16.875C9.5 16.5625 9.77344 16.25 10.125 16.25H11.375V12.5H10.4375C10.0859 12.5 9.8125 12.2266 9.8125 11.875C9.8125 11.5625 10.0859 11.25 10.4375 11.25Z" fill="#475467"/>
</svg>
