<svg width="135" height="28" viewBox="0 0 135 28" fill="none" xmlns="http://www.w3.org/2000/svg">
<path d="M23.082 16.3972C27.7894 15.2293 29.5591 11.6838 29.5591 8.38034C29.5591 3.82788 26.3009 0 19.6629 0H10.3828L12.5327 3.74684H19.6629C23.2429 3.74684 24.853 5.55948 24.853 8.37914C24.853 11.1988 23.2441 13.133 19.6629 13.133H15.9864L24.53 28H30.0013L23.082 16.3972Z" fill="#FAAB5B"/>
<path d="M4.58583 15.6893H15.5034V15.6547L13.3702 11.9484H4.58583V3.74088H10.5886L8.43873 0H0V28H15.5034V24.2591H4.58583V15.6893Z" fill="#236785"/>
<path d="M49.6888 2.54624H42.8772V7.69302H48.9319V10.0398H42.8772V15.4139H49.6888V17.7607H40.001V0.200928H49.6888V2.54624Z" fill="#236785"/>
<path d="M67.625 0.200928V17.7592H64.7488L56.095 4.66567V17.7592H53.2188V0.200928H56.095L64.7488 13.2696V0.200928H67.625Z" fill="#236785"/>
<path d="M71.4111 0.22583H74.2874V17.7592H71.4111V0.22583Z" fill="#236785"/>
<path d="M94.2179 5.27145H90.7622C89.8294 3.5055 88.1632 2.62252 86.0702 2.62252C82.5881 2.62252 80.0653 5.09544 80.0653 8.95443C80.0653 12.8134 82.5881 15.3127 86.0702 15.3127C89.2486 15.3127 91.2419 13.3957 91.6702 10.4432H85.086V8.14772H94.7488V10.3933C94.2193 14.4547 90.7886 17.9118 86.0702 17.9118C81.3517 17.9118 77.1143 14.2288 77.1143 8.95589C77.1143 3.68298 81.1258 0 86.0702 0C89.7282 0 92.8817 1.84222 94.2193 5.27292L94.2179 5.27145Z" fill="#236785"/>
<path d="M97.5737 0.22583H100.677L106.833 13.975L112.964 0.22583H116.041V17.7592H113.165V5.74956L107.816 17.7577H105.823L100.449 5.74956V17.7577H97.5723V0.22583H97.5737Z" fill="#236785"/>
<path d="M130.396 14.1775H123.055L121.793 17.7592H118.791L125.073 0.200928H128.403L134.685 17.7592H131.657L130.396 14.1775ZM126.738 3.68149L123.862 11.8307H129.589L126.738 3.68149Z" fill="#236785"/>
<path d="M42.3536 21.1165C43.9714 21.1165 44.7664 22.0478 44.7664 23.1567C44.7664 23.9605 44.3352 24.8244 43.1882 25.1074L44.8749 27.9324H43.5417L41.9723 25.2057H41.1186V27.9324H40.001V21.1165H42.3551H42.3536ZM42.3536 22.0273H41.1186V24.3125H42.3536C43.2263 24.3125 43.6179 23.8314 43.6179 23.1552C43.6179 22.4791 43.2263 22.0273 42.3536 22.0273Z" fill="#FAAB5B"/>
<path d="M52.9057 22.0185H50.2583V24.0191H52.6124V24.9314H50.2583V27.0201H52.9057V27.9324H49.1406V21.1077H52.9057V22.02V22.0185Z" fill="#FAAB5B"/>
<path d="M60.3302 21.0271C61.7514 21.0271 62.9776 21.7429 63.4969 23.0761H62.1533C61.791 22.3501 61.1427 22.0069 60.3287 22.0069C58.9749 22.0069 57.9951 22.9676 57.9951 24.5077C57.9951 26.0477 58.9764 27.0187 60.3287 27.0187C61.1427 27.0187 61.7896 26.6755 62.1533 25.9495H63.4969C62.9776 27.2827 61.7514 27.9897 60.3302 27.9897C58.4087 27.9897 56.8496 26.5582 56.8496 24.5091C56.8496 22.4601 58.4087 21.0271 60.3302 21.0271Z" fill="#FAAB5B"/>
<path d="M70.0968 21.1165C71.7146 21.1165 72.5096 22.0478 72.5096 23.1567C72.5096 23.9605 72.0783 24.8244 70.9314 25.1074L72.6181 27.9324H71.2848L69.7154 25.2057H68.8618V27.9324H67.7441V21.1165H70.0983H70.0968ZM70.0968 22.0273H68.8618V24.3125H70.0968C70.9695 24.3125 71.3611 23.8314 71.3611 23.1552C71.3611 22.4791 70.9695 22.0273 70.0968 22.0273Z" fill="#FAAB5B"/>
<path d="M76.875 21.1165H77.9927V25.4609C77.9927 26.5199 78.5911 27.0201 79.5327 27.0201C80.4744 27.0201 81.0816 26.5199 81.0816 25.4609V21.1165H82.1993V25.4404C82.1993 27.1755 80.9437 27.9998 79.5225 27.9998C78.1012 27.9998 76.875 27.1755 76.875 25.4404V21.1165Z" fill="#FAAB5B"/>
<path d="M86.5938 21.1165H87.7114V27.9324H86.5938V21.1165Z" fill="#FAAB5B"/>
<path d="M91.7705 21.1165H96.5271V22.0288H94.7128V27.9324H93.5951V22.0288H91.7705V21.1165Z" fill="#FAAB5B"/>
<path d="M100.598 21.1165H101.803L104.196 26.4612L106.579 21.1165H107.776V27.9324H106.658V23.2652L104.58 27.9324H103.805L101.717 23.2652V27.9324H100.599V21.1165H100.598Z" fill="#FAAB5B"/>
<path d="M115.955 22.0185H113.307V24.0191H115.661V24.9314H113.307V27.0201H115.955V27.9324H112.189V21.1077H115.955V22.02V22.0185Z" fill="#FAAB5B"/>
<path d="M125.87 21.1062V27.9309H124.752L121.389 22.8414V27.9309H120.271V21.1062H121.389L124.752 26.1855V21.1062H125.87Z" fill="#FAAB5B"/>
<path d="M129.93 21.1165H134.686V22.0288H132.872V27.9324H131.754V22.0288H129.93V21.1165Z" fill="#FAAB5B"/>
</svg>
