<svg width="24" height="24" viewBox="0 0 24 24" fill="none" xmlns="http://www.w3.org/2000/svg">
<path d="M14.5 10.625V6.875V4.6875C14.5 4.17969 14.8906 3.75 15.4375 3.75H18.5625C19.0703 3.75 19.5 4.17969 19.5 4.6875V6.5625C19.5 7.10938 19.0703 7.5 18.5625 7.5H15.75V10.625C15.75 10.9766 15.4375 11.25 15.125 11.25C14.7734 11.25 14.5 10.9766 14.5 10.625ZM18.25 6.25V5H15.75V6.25H18.25ZM13.25 5V6.25H9.89062C11.1797 7.30469 12 8.86719 12 10.625V17.5C12 17.9688 11.8438 18.3984 11.6484 18.75H20.75C21.4141 18.75 22 18.2031 22 17.5V10.625C22 9.375 21.4531 8.20312 20.5547 7.42188C20.6719 7.14844 20.75 6.875 20.75 6.5625V5.97656C22.2344 6.95312 23.25 8.67188 23.25 10.625V17.5C23.25 18.9062 22.1172 20 20.75 20H9.5H3.25C1.84375 20 0.75 18.9062 0.75 17.5V10.625C0.75 7.53906 3.25 5 6.375 5H13.25ZM9.5 18.75C10.1641 18.75 10.75 18.2031 10.75 17.5V10.625C10.75 8.24219 8.75781 6.25 6.375 6.25C3.95312 6.25 2 8.24219 2 10.625V17.5C2 18.2031 2.54688 18.75 3.25 18.75H9.5ZM4.5 10.625C4.5 10.3125 4.77344 10 5.125 10H7.625C7.9375 10 8.25 10.3125 8.25 10.625C8.25 10.9766 7.9375 11.25 7.625 11.25H5.125C4.77344 11.25 4.5 10.9766 4.5 10.625Z" fill="#475467"/>
</svg>
