<svg width="24" height="24" viewBox="0 0 24 24" fill="none" xmlns="http://www.w3.org/2000/svg">
<path d="M20.75 5H3.25C2.54688 5 2 5.58594 2 6.25V18.75C2 19.4531 2.54688 20 3.25 20H20.75C21.4141 20 22 19.4531 22 18.75V6.25C22 5.58594 21.4141 5 20.75 5ZM3.25 3.75H20.75C22.1172 3.75 23.25 4.88281 23.25 6.25V18.75C23.25 20.1562 22.1172 21.25 20.75 21.25H3.25C1.84375 21.25 0.75 20.1562 0.75 18.75V6.25C0.75 4.88281 1.84375 3.75 3.25 3.75ZM7 10C7 10.7031 7.54688 11.25 8.25 11.25C8.91406 11.25 9.5 10.7031 9.5 10C9.5 9.33594 8.91406 8.75 8.25 8.75C7.54688 8.75 7 9.33594 7 10ZM10.75 10C10.75 10.8984 10.2422 11.7188 9.5 12.1875C8.71875 12.6172 7.74219 12.6172 7 12.1875C6.21875 11.7188 5.75 10.8984 5.75 10C5.75 9.14062 6.21875 8.32031 7 7.85156C7.74219 7.42188 8.71875 7.42188 9.5 7.85156C10.2422 8.32031 10.75 9.14062 10.75 10ZM5.125 16.875C5.125 17.2266 4.8125 17.5 4.5 17.5C4.14844 17.5 3.875 17.2266 3.875 16.875C3.875 15.1562 5.24219 13.75 7 13.75H9.5C11.2188 13.75 12.625 15.1562 12.625 16.875C12.625 17.2266 12.3125 17.5 12 17.5C11.6484 17.5 11.375 17.2266 11.375 16.875C11.375 15.8594 10.5156 15 9.5 15H7C5.94531 15 5.125 15.8594 5.125 16.875ZM14.5 8.75H19.5C19.8125 8.75 20.125 9.0625 20.125 9.375C20.125 9.72656 19.8125 10 19.5 10H14.5C14.1484 10 13.875 9.72656 13.875 9.375C13.875 9.0625 14.1484 8.75 14.5 8.75ZM14.5 11.25H19.5C19.8125 11.25 20.125 11.5625 20.125 11.875C20.125 12.2266 19.8125 12.5 19.5 12.5H14.5C14.1484 12.5 13.875 12.2266 13.875 11.875C13.875 11.5625 14.1484 11.25 14.5 11.25ZM14.5 13.75H19.5C19.8125 13.75 20.125 14.0625 20.125 14.375C20.125 14.7266 19.8125 15 19.5 15H14.5C14.1484 15 13.875 14.7266 13.875 14.375C13.875 14.0625 14.1484 13.75 14.5 13.75Z" fill="#475467"/>
</svg>
