<svg width="24" height="24" viewBox="0 0 24 24" fill="none" xmlns="http://www.w3.org/2000/svg">
<path d="M10.7109 3.98438L10.1641 5.85938C10.0469 6.32812 9.69531 6.67969 9.30469 6.875C8.99219 7.03125 8.71875 7.1875 8.44531 7.34375C8.09375 7.61719 7.58594 7.73438 7.11719 7.61719L5.24219 7.14844C5.16406 7.14844 5.125 7.14844 5.08594 7.14844C4.85156 7.42188 4.65625 7.69531 4.5 8.00781L4.30469 8.28125C4.14844 8.59375 3.99219 8.90625 3.875 9.21875C3.875 9.25781 3.91406 9.33594 3.95312 9.375L5.32031 10.7422C5.63281 11.0938 5.78906 11.6016 5.75 12.0312C5.75 12.1875 5.75 12.3438 5.75 12.5C5.75 12.6953 5.75 12.8516 5.75 13.0078C5.78906 13.4375 5.63281 13.9062 5.32031 14.2578L3.95312 15.6641C3.91406 15.7031 3.875 15.7812 3.875 15.8203C3.99219 16.1328 4.14844 16.4453 4.30469 16.7578L4.46094 17.0312C4.65625 17.3047 4.85156 17.6172 5.04688 17.8906C5.125 17.8906 5.16406 17.8906 5.24219 17.8906L7.11719 17.4219C7.58594 17.3047 8.09375 17.4219 8.44531 17.6562C8.71875 17.8516 8.99219 18.0078 9.30469 18.1641C9.69531 18.3594 10.0469 18.7109 10.1641 19.1797L10.7109 21.0547C10.7109 21.0938 10.75 21.1328 10.7891 21.1719C11.1797 21.25 11.5703 21.25 12 21.25C12.3906 21.25 12.7812 21.25 13.1719 21.1719C13.2109 21.1328 13.25 21.0938 13.25 21.0547L13.7969 19.1797C13.9141 18.7109 14.2656 18.3594 14.6562 18.1641C14.9688 18.0078 15.2422 17.8516 15.5156 17.6562C15.9062 17.4219 16.375 17.3047 16.8438 17.4219L18.7188 17.8906C18.7969 17.8906 18.8359 17.8906 18.9141 17.8906C19.1094 17.6172 19.3047 17.3047 19.5 17.0312L19.6562 16.7578C19.8125 16.4453 19.9688 16.1328 20.0859 15.8203C20.0859 15.7812 20.0469 15.7031 20.0078 15.6641L18.6406 14.2578C18.3281 13.9062 18.1719 13.4375 18.2109 13.0078C18.2109 12.8516 18.25 12.6953 18.25 12.5C18.25 12.3438 18.2109 12.1875 18.2109 12.0312C18.1719 11.6016 18.3281 11.0938 18.6406 10.7422L20.0078 9.375C20.0469 9.33594 20.0859 9.25781 20.0859 9.21875C19.9688 8.90625 19.8125 8.59375 19.6562 8.28125L19.5 8.00781C19.3047 7.69531 19.1094 7.42188 18.9141 7.14844C18.8359 7.14844 18.7969 7.14844 18.7188 7.14844L16.8438 7.61719C16.375 7.73438 15.9062 7.61719 15.5156 7.38281C15.2422 7.1875 14.9688 7.03125 14.6562 6.875C14.2656 6.67969 13.9141 6.32812 13.7969 5.85938L13.25 3.98438C13.25 3.94531 13.2109 3.86719 13.1719 3.82812C12.7812 3.78906 12.3906 3.75 12 3.75C11.5703 3.75 11.1797 3.78906 10.7891 3.82812C10.75 3.86719 10.7109 3.94531 10.7109 3.98438ZM12 2.5C12.5078 2.5 12.9766 2.53906 13.4844 2.61719C13.5625 2.65625 13.6016 2.65625 13.6797 2.69531C14.0312 2.89062 14.3438 3.24219 14.4609 3.63281L15.0078 5.50781C15.0078 5.58594 15.0859 5.70312 15.2031 5.74219C15.5547 5.89844 15.9062 6.09375 16.2188 6.32812C16.3359 6.40625 16.4531 6.44531 16.5312 6.40625L18.4453 5.9375C18.8359 5.82031 19.3047 5.89844 19.6562 6.13281C19.6953 6.17188 19.7344 6.21094 19.8125 6.28906C20.0859 6.60156 20.3203 6.99219 20.5547 7.38281L20.75 7.65625V7.69531C20.9453 8.08594 21.1406 8.47656 21.2969 8.86719C21.3359 8.94531 21.3359 8.98438 21.3359 9.0625C21.375 9.49219 21.2188 9.92188 20.9062 10.2344L19.5391 11.6406C19.5 11.6797 19.4609 11.7969 19.4609 11.9141C19.4609 12.1094 19.5 12.3047 19.5 12.5C19.5 12.6953 19.4609 12.8906 19.4609 13.0859C19.4609 13.2422 19.5 13.3594 19.5391 13.3984L20.9062 14.8047C21.2188 15.1172 21.375 15.5469 21.3359 15.9766C21.3359 16.0156 21.3359 16.0938 21.2969 16.1719C21.1406 16.5625 20.9453 16.9531 20.75 17.3438L20.5547 17.6562C20.3203 18.0469 20.0859 18.3984 19.7734 18.75C19.7344 18.8281 19.6953 18.8672 19.6562 18.9062C19.3047 19.1406 18.8359 19.2188 18.4062 19.1016L16.5312 18.6328C16.4531 18.5938 16.3359 18.6328 16.2188 18.7109C15.9062 18.9062 15.5547 19.1016 15.2031 19.2969C15.0859 19.3359 15.0078 19.4531 15.0078 19.5312L14.4609 21.3672C14.3438 21.7969 14.0312 22.1484 13.6797 22.3438C13.6016 22.3828 13.5625 22.3828 13.4844 22.4219C12.9766 22.4609 12.5078 22.5 12 22.5C11.4922 22.5 10.9844 22.4609 10.4766 22.4219C10.3984 22.3828 10.3594 22.3828 10.2812 22.3438C9.92969 22.1484 9.61719 21.7969 9.5 21.3672L8.95312 19.5312C8.95312 19.4531 8.875 19.3359 8.75781 19.2969C8.40625 19.1406 8.05469 18.9453 7.74219 18.7109C7.625 18.6328 7.50781 18.6328 7.42969 18.6328L5.55469 19.1016C5.125 19.2188 4.69531 19.1406 4.34375 18.9062C4.26562 18.8672 4.22656 18.8281 4.1875 18.7891C3.875 18.4375 3.64062 18.0469 3.40625 17.6562L3.25 17.3828L3.21094 17.3438C3.01562 16.9531 2.82031 16.5625 2.66406 16.1719C2.66406 16.0938 2.625 16.0547 2.625 15.9766C2.625 15.5469 2.74219 15.1172 3.05469 14.8047L4.42188 13.3984C4.46094 13.3594 4.5 13.2422 4.5 13.0859C4.5 12.9297 4.5 12.6953 4.5 12.5C4.5 12.3047 4.5 12.1094 4.5 11.9141C4.5 11.7969 4.46094 11.6797 4.42188 11.6406L3.05469 10.2344C2.74219 9.92188 2.625 9.49219 2.625 9.0625C2.625 8.98438 2.66406 8.94531 2.66406 8.86719C2.82031 8.47656 3.01562 8.08594 3.21094 7.69531L3.25 7.65625L3.40625 7.38281C3.64062 6.99219 3.91406 6.60156 4.1875 6.28906C4.22656 6.21094 4.26562 6.17188 4.34375 6.13281C4.69531 5.89844 5.125 5.82031 5.55469 5.9375L7.42969 6.40625C7.50781 6.44531 7.625 6.40625 7.74219 6.32812C8.05469 6.13281 8.40625 5.89844 8.75781 5.74219C8.875 5.70312 8.95312 5.58594 8.95312 5.50781L9.5 3.63281C9.61719 3.24219 9.92969 2.89062 10.2812 2.69531C10.3594 2.65625 10.3984 2.65625 10.4766 2.61719C10.9844 2.53906 11.4922 2.5 12 2.5ZM9.8125 12.5C9.8125 13.3203 10.2031 14.0234 10.9062 14.4141C11.5703 14.8047 12.3906 14.8047 13.0938 14.4141C13.7578 14.0234 14.1875 13.3203 14.1875 12.5C14.1875 11.7188 13.7578 11.0156 13.0938 10.625C12.3906 10.2344 11.5703 10.2344 10.9062 10.625C10.2031 11.0156 9.8125 11.7188 9.8125 12.5ZM15.4375 12.5C15.4375 13.75 14.7734 14.8828 13.7188 15.5078C12.625 16.0938 11.3359 16.0938 10.2812 15.5078C9.1875 14.8828 8.5625 13.75 8.5625 12.5C8.5625 11.2891 9.1875 10.1562 10.2812 9.53125C11.3359 8.94531 12.625 8.94531 13.7188 9.53125C14.7734 10.1562 15.4375 11.2891 15.4375 12.5Z" fill="#475467"/>
</svg>
