<svg width="20" height="20" viewBox="0 0 20 20" fill="none" xmlns="http://www.w3.org/2000/svg">
<path d="M3 4C3 3.46875 3.4375 3 4 3H16C16.5312 3 17 3.46875 17 4C17 4.5625 16.5312 5 16 5H4C3.4375 5 3 4.5625 3 4ZM9 8C9 7.46875 9.4375 7 10 7H16C16.5312 7 17 7.46875 17 8C17 8.5625 16.5312 9 16 9H10C9.4375 9 9 8.5625 9 8ZM10 11H16C16.5312 11 17 11.4688 17 12C17 12.5625 16.5312 13 16 13H10C9.4375 13 9 12.5625 9 12C9 11.4688 9.4375 11 10 11ZM3 16C3 15.4688 3.4375 15 4 15H16C16.5312 15 17 15.4688 17 16C17 16.5625 16.5312 17 16 17H4C3.4375 17 3 16.5625 3 16ZM3 10.4062C2.75 10.2188 2.75 9.8125 3 9.625L6.1875 7.125C6.5 6.875 6.96875 7.125 6.96875 7.53125V12.5C6.96875 12.9062 6.5 13.1562 6.1875 12.875L3 10.4062Z" fill="#2494B6"/>
</svg>
