<svg width="22" height="20" viewBox="0 0 22 20" fill="none" xmlns="http://www.w3.org/2000/svg">
<path d="M0.5 1C0.5 0.625 0.828125 0.25 1.25 0.25H20.75C21.125 0.25 21.5 0.625 21.5 1C21.5 1.42188 21.125 1.75 20.75 1.75H1.25C0.828125 1.75 0.5 1.42188 0.5 1ZM9.5 7C9.5 6.625 9.82812 6.25 10.25 6.25H20.75C21.125 6.25 21.5 6.625 21.5 7C21.5 7.42188 21.125 7.75 20.75 7.75H10.25C9.82812 7.75 9.5 7.42188 9.5 7ZM10.25 12.25H20.75C21.125 12.25 21.5 12.625 21.5 13C21.5 13.4219 21.125 13.75 20.75 13.75H10.25C9.82812 13.75 9.5 13.4219 9.5 13C9.5 12.625 9.82812 12.25 10.25 12.25ZM0.5 19C0.5 18.625 0.828125 18.25 1.25 18.25H20.75C21.125 18.25 21.5 18.625 21.5 19C21.5 19.4219 21.125 19.75 20.75 19.75H1.25C0.828125 19.75 0.5 19.4219 0.5 19ZM5 7.9375L2.46875 10L5 12.1094V7.9375ZM0.828125 9.4375L5.23438 5.78125C5.75 5.35938 6.5 5.73438 6.5 6.34375V13.7031C6.5 14.3125 5.75 14.6875 5.23438 14.2656L0.828125 10.6094C0.453125 10.2812 0.453125 9.71875 0.828125 9.4375Z" fill="#475467"/>
</svg>
