<svg width="24" height="24" viewBox="0 0 24 24" fill="none" xmlns="http://www.w3.org/2000/svg">
<path d="M5.125 15C4.42188 15 3.83594 15.3906 3.48438 15.9375C3.13281 16.5234 3.13281 17.2656 3.48438 17.8125C3.83594 18.3984 4.42188 18.75 5.125 18.75C5.78906 18.75 6.375 18.3984 6.72656 17.8125C7.07812 17.2656 7.07812 16.5234 6.72656 15.9375C6.375 15.3906 5.78906 15 5.125 15ZM8.17188 16.25H21.375C21.6875 16.25 22 16.5625 22 16.875C22 17.2266 21.6875 17.5 21.375 17.5H8.17188C7.89844 18.9453 6.60938 20 5.125 20C3.36719 20 2 18.6328 2 16.875C2 15.1562 3.36719 13.75 5.125 13.75C6.60938 13.75 7.89844 14.8438 8.17188 16.25ZM17 8.125C17 8.82812 17.3516 9.41406 17.9375 9.76562C18.4844 10.1172 19.2266 10.1172 19.8125 9.76562C20.3594 9.41406 20.75 8.82812 20.75 8.125C20.75 7.46094 20.3594 6.875 19.8125 6.52344C19.2266 6.17188 18.4844 6.17188 17.9375 6.52344C17.3516 6.875 17 7.46094 17 8.125ZM15.7891 7.5C16.1016 6.09375 17.3516 5 18.875 5C20.5938 5 22 6.40625 22 8.125C22 9.88281 20.5938 11.25 18.875 11.25C17.3516 11.25 16.1016 10.1953 15.7891 8.75H2.625C2.27344 8.75 2 8.47656 2 8.125C2 7.8125 2.27344 7.5 2.625 7.5H15.7891Z" fill="#475467"/>
</svg>
