<svg width="24" height="24" viewBox="0 0 24 24" fill="none" xmlns="http://www.w3.org/2000/svg">
<path d="M3.25 12.5V14.375C3.25 14.7266 2.9375 15 2.625 15C2.27344 15 2 14.7266 2 14.375V12.5C2 6.99219 6.45312 2.5 12 2.5C17.5078 2.5 22 6.99219 22 12.5V18.1641C22 19.8828 20.5938 21.2891 18.875 21.2891L15.6328 21.25C15.3594 21.9922 14.6562 22.5 13.875 22.5H11.375C10.3203 22.5 9.5 21.6797 9.5 20.625C9.5 19.6094 10.3203 18.75 11.375 18.75H13.875C14.6562 18.75 15.3594 19.2969 15.6328 20L18.875 20.0391C19.8906 20.0391 20.75 19.1797 20.75 18.1641V12.5C20.75 7.69531 16.8047 3.75 12 3.75C7.15625 3.75 3.25 7.69531 3.25 12.5ZM14.5 20.625C14.5 20.3125 14.1875 20 13.875 20H11.375C11.0234 20 10.75 20.3125 10.75 20.625C10.75 20.9766 11.0234 21.25 11.375 21.25H13.875C14.1875 21.25 14.5 20.9766 14.5 20.625ZM7.625 11.25C6.57031 11.25 5.75 12.1094 5.75 13.125V14.375C5.75 15.4297 6.57031 16.25 7.625 16.25H8.25V11.25H7.625ZM4.5 13.125C4.5 11.4062 5.86719 10 7.625 10H8.25C8.91406 10 9.5 10.5859 9.5 11.25V16.25C9.5 16.9531 8.91406 17.5 8.25 17.5H7.625C5.86719 17.5 4.5 16.1328 4.5 14.375V13.125ZM15.75 11.25V16.25H16.375C17.3906 16.25 18.25 15.4297 18.25 14.375V13.125C18.25 12.1094 17.3906 11.25 16.375 11.25H15.75ZM16.375 10C18.0938 10 19.5 11.4062 19.5 13.125V14.375C19.5 16.1328 18.0938 17.5 16.375 17.5H15.75C15.0469 17.5 14.5 16.9531 14.5 16.25V11.25C14.5 10.5859 15.0469 10 15.75 10H16.375Z" fill="#475467"/>
</svg>
