<svg width="24" height="24" viewBox="0 0 24 24" fill="none" xmlns="http://www.w3.org/2000/svg">
<path d="M4.5 3.86719L3.32812 5.03906L6.17969 8.75H8.25V6.71875L4.5 3.86719ZM9.5 9.14062L13.4453 13.125C14.6172 12.3438 16.2188 12.5 17.2344 13.5156L21.6094 17.8906C22.1172 18.3594 22.1172 19.1797 21.6094 19.6484L19.1094 22.1484C18.6406 22.6562 17.8203 22.6562 17.3516 22.1484L12.9766 17.7734C11.9609 16.7578 11.8047 15.1562 12.5859 13.9844L8.60156 10C8.5625 10 8.5625 10 8.52344 10H6.02344C5.75 10 5.47656 9.88281 5.28125 9.64844L2.15625 5.58594C1.88281 5.19531 1.92188 4.6875 2.27344 4.33594L3.83594 2.77344C4.14844 2.46094 4.69531 2.42188 5.04688 2.69531L9.10938 5.82031C9.34375 6.01562 9.5 6.28906 9.5 6.5625V9.0625C9.5 9.10156 9.5 9.10156 9.5 9.14062ZM13.875 14.375C13.1719 15.0781 13.1719 16.2109 13.875 16.875L18.25 21.25L20.75 18.75L16.375 14.375C15.6719 13.7109 14.5391 13.7109 13.875 14.375ZM6.0625 19.0625C6.0625 19.4141 5.75 19.6875 5.4375 19.6875C5.08594 19.6875 4.8125 19.4141 4.8125 19.0625C4.8125 18.75 5.08594 18.4375 5.4375 18.4375C5.75 18.4375 6.0625 18.75 6.0625 19.0625ZM2.89844 17.2266L8.48438 11.6406L9.38281 12.5391L3.79688 18.125C3.44531 18.4766 3.25 18.9453 3.25 19.4141C3.25 20.4297 4.07031 21.25 5.08594 21.25C5.55469 21.25 6.02344 21.0547 6.375 20.7031L10.8672 16.2109C10.9453 16.6797 11.0625 17.1484 11.2969 17.5781L7.27344 21.6016C6.6875 22.1875 5.90625 22.5 5.08594 22.5C3.36719 22.5 2 21.1328 2 19.4141C2 18.5938 2.3125 17.8125 2.89844 17.2266ZM20.7109 8.75C20.7109 8.35938 20.6719 7.96875 20.5547 7.61719L18.6797 9.49219C18.3281 9.84375 17.8594 10.0391 17.3516 10.0391H16.375C15.3203 10.0391 14.4609 9.17969 14.4609 8.125V7.14844C14.4609 6.64062 14.6562 6.17188 15.0078 5.82031L16.8828 3.94531C16.5312 3.82812 16.1406 3.78906 15.75 3.78906C13.9531 3.78906 12.3906 4.72656 11.5312 6.13281L10.5156 5.35156C11.6094 3.63281 13.5625 2.5 15.75 2.5C16.6875 2.5 17.625 2.73438 18.4453 3.125C18.7969 3.32031 18.8359 3.78906 18.5625 4.0625L15.9062 6.71875C15.7891 6.83594 15.75 6.99219 15.75 7.14844V8.125C15.75 8.47656 16.0234 8.75 16.375 8.75H17.3516C17.5078 8.75 17.6641 8.71094 17.7812 8.59375L20.4375 5.9375C20.7109 5.66406 21.2188 5.70312 21.375 6.05469C21.7656 6.875 22 7.8125 22 8.75C22 10.8594 20.9453 12.7344 19.3438 13.8672L18.4453 12.9297C19.8125 12.0703 20.7109 10.5078 20.7109 8.75Z" fill="#475467"/>
</svg>
